<svg xmlns="http://www.w3.org/2000/svg" xmlns:xlink="http://www.w3.org/1999/xlink" width="794" zoomAndPan="magnify" viewBox="0 0 594.95996 842.24997" height="1123" preserveAspectRatio="xMidYMid meet" version="1.0"><defs><g/><clipPath id="0a17d62992"><path d="M 0.246094 0 L 594.675781 0 L 594.675781 841.5 L 0.246094 841.5 Z M 0.246094 0 " clip-rule="nonzero"/></clipPath><clipPath id="cc871e857a"><path d="M 59.71875 95.210938 L 535.515625 95.210938 L 535.515625 95.472656 L 59.71875 95.472656 Z M 535.246094 95.472656 L 535.515625 95.472656 L 535.515625 745.664062 L 535.246094 745.664062 Z M 59.71875 95.472656 L 59.980469 95.472656 L 59.980469 745.664062 L 59.71875 745.664062 Z M 59.71875 745.664062 L 535.515625 745.664062 L 535.515625 745.929688 L 59.71875 745.929688 Z M 59.71875 745.664062 " clip-rule="nonzero"/></clipPath><clipPath id="ba5b27353a"><path d="M 0.71875 0.210938 L 476.515625 0.210938 L 476.515625 0.472656 L 0.71875 0.472656 Z M 476.246094 0.472656 L 476.515625 0.472656 L 476.515625 650.664062 L 476.246094 650.664062 Z M 0.71875 0.472656 L 0.980469 0.472656 L 0.980469 650.664062 L 0.71875 650.664062 Z M 0.71875 650.664062 L 476.515625 650.664062 L 476.515625 650.929688 L 0.71875 650.929688 Z M 0.71875 650.664062 " clip-rule="nonzero"/></clipPath><clipPath id="a2960dd99c"><rect x="0" width="477" y="0" height="651"/></clipPath><clipPath id="8cbf2a5dca"><path d="M 233 390 L 279 390 L 279 478.78125 L 233 478.78125 Z M 233 390 " clip-rule="nonzero"/></clipPath><clipPath id="2fbaa2e71b"><path d="M 213.527344 477 L 381.375 477 L 381.375 478.78125 L 213.527344 478.78125 Z M 213.527344 477 " clip-rule="nonzero"/></clipPath><clipPath id="eada25d329"><path d="M 321 426 L 329 426 L 329 478.78125 L 321 478.78125 Z M 321 426 " clip-rule="nonzero"/></clipPath></defs><g clip-path="url(#0a17d62992)"><path fill="#ffffff" d="M 0.246094 0 L 595.214844 0 L 595.214844 841.5 L 0.246094 841.5 Z M 0.246094 0 " fill-opacity="1" fill-rule="nonzero"/><path fill="#ffffff" d="M 0.246094 0 L 595.214844 0 L 595.214844 841.5 L 0.246094 841.5 Z M 0.246094 0 " fill-opacity="1" fill-rule="nonzero"/></g><g clip-path="url(#cc871e857a)"><g transform="matrix(1, 0, 0, 1, 59, 95)"><g clip-path="url(#a2960dd99c)"><g clip-path="url(#ba5b27353a)"><path fill="#333333" d="M 0.71875 0.210938 L 476.515625 0.210938 L 476.515625 650.925781 L 0.71875 650.925781 Z M 0.71875 0.210938 " fill-opacity="1" fill-rule="nonzero"/></g></g></g></g><path stroke-linecap="butt" transform="matrix(0.749333, 0, 0, 0.749333, 59.719263, 742.610701)" fill="none" stroke-linejoin="miter" d="M -0.000684403 2.000012 L 634.96011 2.000012 " stroke="#7d7064" stroke-width="4" stroke-opacity="1" stroke-miterlimit="4"/><path stroke-linecap="butt" transform="matrix(0.749333, 0, 0, 0.749333, 59.719263, 94.46)" fill="none" stroke-linejoin="miter" d="M -0.000684403 1.002141 L 634.96011 1.002141 " stroke="#7d7064" stroke-width="2" stroke-opacity="1" stroke-miterlimit="4"/><path stroke-linecap="butt" transform="matrix(0, 0.749333, -0.749333, 0, 60.46432, 94.464331)" fill="none" stroke-linejoin="miter" d="M 0.000684468 1.000192 L 869.404451 1.000192 " stroke="#7d7064" stroke-width="2" stroke-opacity="1" stroke-miterlimit="4"/><path stroke-linecap="butt" transform="matrix(0, 0.749333, -0.749333, 0, 536.261065, 94.464331)" fill="none" stroke-linejoin="miter" d="M 0.000684468 1.000018 L 869.404451 1.000018 " stroke="#7d7064" stroke-width="2" stroke-opacity="1" stroke-miterlimit="4"/><path stroke-linecap="round" transform="matrix(0.105973, 0, 0, 0.106008, 135.890513, 255.622639)" fill="none" stroke-linejoin="round" d="M 874.487417 874.589244 L 998.192366 874.589244 " stroke="#fff100" stroke-width="18" stroke-opacity="1" stroke-miterlimit="10"/><path stroke-linecap="round" transform="matrix(0.105973, 0, 0, 0.106008, 135.890513, 255.622639)" fill="none" stroke-linejoin="round" d="M 936.30303 936.495055 L 936.30303 812.683433 " stroke="#fff100" stroke-width="18" stroke-opacity="1" stroke-miterlimit="10"/><path stroke-linecap="round" transform="matrix(0.105973, 0, 0, 0.106008, 135.890513, 255.622639)" fill="none" stroke-linejoin="round" d="M 759.592206 1011.592699 L 897.414854 1011.592699 " stroke="#fff100" stroke-width="18" stroke-opacity="1" stroke-miterlimit="10"/><path stroke-linecap="round" transform="matrix(0.105973, 0, 0, 0.106008, 135.890513, 255.622639)" fill="none" stroke-linejoin="round" d="M 828.4851 1080.499763 L 828.4851 942.685636 " stroke="#fff100" stroke-width="18" stroke-opacity="1" stroke-miterlimit="10"/><path stroke-linecap="round" transform="matrix(0.105973, 0, 0, 0.106008, 135.890513, 255.622639)" fill="none" stroke-linejoin="round" d="M 1814.106861 1127.002818 L 1929.296958 1127.002818 " stroke="#fff100" stroke-width="18" stroke-opacity="1" stroke-miterlimit="10"/><path stroke-linecap="round" transform="matrix(0.105973, 0, 0, 0.106008, 135.890513, 255.622639)" fill="none" stroke-linejoin="round" d="M 1871.683479 1184.597332 L 1871.683479 1069.297759 " stroke="#fff100" stroke-width="18" stroke-opacity="1" stroke-miterlimit="10"/><path stroke-linecap="round" transform="matrix(0.105973, 0, 0, 0.106008, 135.890513, 255.622639)" fill="none" stroke-linejoin="round" d="M 1790.11046 688.798113 L 1891.698911 688.798113 " stroke="#fff100" stroke-width="18" stroke-opacity="1" stroke-miterlimit="10"/><path stroke-linecap="round" transform="matrix(0.105973, 0, 0, 0.106008, 135.890513, 255.622639)" fill="none" stroke-linejoin="round" d="M 1840.904685 739.612466 L 1840.904685 637.98376 " stroke="#fff100" stroke-width="18" stroke-opacity="1" stroke-miterlimit="10"/><path fill="#b49c59" d="M 254.210938 397.515625 C 252.695312 392.5625 252.429688 387.921875 252.300781 385.578125 C 252.109375 381.855469 252.609375 381.136719 252.035156 378.476562 C 251.082031 374.023438 249.15625 373.503906 248.773438 370.070312 C 248.453125 367.292969 249.546875 366.070312 250.859375 362.011719 C 251.675781 359.488281 252.109375 356.171875 252.980469 349.546875 C 254.78125 335.742188 253.625 336.675781 254.824219 332.59375 C 257.261719 324.359375 262.390625 319.164062 264.011719 317.625 C 265.039062 316.652344 270.296875 311.765625 278.976562 309.304688 C 283.4375 308.042969 291.714844 305.699219 300.316406 309.664062 C 309.113281 313.714844 312.875 321.886719 313.820312 323.921875 C 315.070312 326.625 316.734375 330.261719 317.148438 335.148438 C 317.347656 337.515625 317.167969 339.199219 318.046875 341.914062 C 319.03125 344.933594 320.175781 345.699219 321.207031 348.136719 C 321.691406 349.28125 322.457031 351.527344 322.042969 357.707031 C 321.320312 368.289062 318.628906 368.222656 319.179688 374.617188 C 319.476562 378 320.675781 383.097656 321.503906 386.617188 C 321.839844 388.035156 322.277344 389.816406 322.222656 392.234375 C 322.160156 395.203125 321.386719 397.609375 320.738281 399.179688 " fill-opacity="1" fill-rule="nonzero"/><path fill="#e9dccd" d="M 238.058594 477.136719 C 230.195312 474.359375 230.089844 467.203125 228.667969 461.246094 C 227.28125 455.425781 227.769531 448.523438 228.785156 434.945312 C 229.304688 428.054688 230.195312 418.101562 234.160156 408.601562 C 235.027344 406.523438 235.960938 404.648438 237.792969 402.953125 C 240.476562 400.472656 244.246094 399.601562 251.6875 397.980469 C 257.292969 396.75 260.28125 395.480469 262.539062 394.300781 C 264.902344 393.074219 265.050781 391.183594 265.050781 391.183594 C 265.050781 391.183594 269.195312 393.601562 273.589844 393.625 C 275.636719 393.632812 277.269531 393.625 277.269531 393.625 L 276.515625 400.046875 C 276.515625 400.046875 279.578125 402.09375 288.503906 401.882812 C 296.449219 401.691406 299.28125 400.441406 300.371094 399.6875 C 303.699219 397.398438 306.410156 394.3125 306.410156 394.3125 C 306.410156 394.3125 311.933594 394.832031 319.476562 397.175781 C 328.953125 400.109375 327.617188 397.925781 330.191406 400.460938 C 336.0625 406.226562 340.089844 418.84375 341.308594 418.84375 C 343.894531 418.84375 346.863281 405.410156 349.128906 403.101562 C 350.03125 402.1875 350.570312 404.816406 353.242188 405.632812 C 356.273438 406.566406 357.34375 405.824219 361.402344 405.039062 L 361.390625 407.214844 C 361.582031 411.242188 360.351562 415.34375 359.929688 422.296875 C 359.207031 434.128906 357.382812 442.121094 355.539062 449.988281 C 352.878906 461.351562 350.953125 463.652344 348.21875 466.417969 C 346.53125 468.136719 339.699219 471.921875 334.71875 471.824219 C 329.238281 471.710938 325.082031 467.320312 325.082031 467.320312 C 325.082031 467.320312 323.460938 471.730469 322.910156 477.984375 " fill-opacity="1" fill-rule="nonzero"/><path fill="#231815" d="M 362.269531 326.125 C 362.703125 326.191406 363.128906 326.296875 363.546875 326.4375 C 363.96875 326.578125 364.378906 326.757812 364.78125 326.972656 C 365.183594 327.191406 365.574219 327.441406 365.953125 327.730469 C 366.332031 328.019531 366.699219 328.339844 367.054688 328.699219 C 367.410156 329.058594 367.75 329.445312 368.078125 329.871094 C 368.402344 330.292969 368.710938 330.75 369.007812 331.234375 C 369.300781 331.71875 369.578125 332.234375 369.839844 332.777344 C 370.097656 333.316406 370.339844 333.886719 370.5625 334.480469 C 370.785156 335.074219 370.988281 335.695312 371.171875 336.335938 C 371.355469 336.976562 371.515625 337.636719 371.660156 338.316406 C 371.800781 338.996094 371.921875 339.695312 372.023438 340.410156 C 372.121094 341.125 372.199219 341.851562 372.257812 342.59375 C 372.3125 343.332031 372.347656 344.082031 372.359375 344.84375 C 372.371094 345.605469 372.363281 346.371094 372.332031 347.144531 C 372.300781 347.917969 372.246094 348.691406 372.171875 349.46875 C 372.097656 350.246094 372 351.023438 371.882812 351.796875 C 371.761719 352.570312 371.625 353.339844 371.464844 354.105469 C 371.304688 354.871094 371.125 355.625 370.921875 356.371094 C 370.722656 357.121094 370.503906 357.855469 370.265625 358.574219 C 370.023438 359.296875 369.769531 360.003906 369.492188 360.695312 C 369.21875 361.386719 368.925781 362.054688 368.617188 362.707031 C 368.308594 363.359375 367.988281 363.988281 367.648438 364.597656 C 367.308594 365.203125 366.957031 365.785156 366.589844 366.34375 C 366.222656 366.898438 365.847656 367.429688 365.457031 367.929688 C 365.066406 368.429688 364.667969 368.902344 364.257812 369.34375 C 363.847656 369.78125 363.429688 370.191406 363.003906 370.566406 C 362.578125 370.941406 362.148438 371.28125 361.710938 371.589844 C 361.273438 371.894531 360.832031 372.167969 360.386719 372.402344 C 359.941406 372.636719 359.492188 372.835938 359.042969 372.996094 C 358.59375 373.160156 358.148438 373.28125 357.699219 373.371094 C 357.25 373.457031 356.808594 373.503906 356.363281 373.515625 C 355.921875 373.523438 355.484375 373.496094 355.050781 373.429688 C 354.617188 373.363281 354.191406 373.261719 353.773438 373.117188 C 353.351562 372.976562 352.941406 372.796875 352.542969 372.582031 C 352.140625 372.367188 351.75 372.113281 351.367188 371.824219 C 350.988281 371.539062 350.621094 371.214844 350.265625 370.855469 C 349.910156 370.5 349.570312 370.109375 349.246094 369.683594 C 348.917969 369.261719 348.609375 368.808594 348.3125 368.320312 C 348.019531 367.835938 347.742188 367.324219 347.484375 366.78125 C 347.222656 366.238281 346.984375 365.667969 346.761719 365.074219 C 346.539062 364.480469 346.335938 363.863281 346.152344 363.222656 C 345.96875 362.582031 345.804688 361.921875 345.664062 361.238281 C 345.519531 360.558594 345.398438 359.859375 345.300781 359.148438 C 345.199219 358.433594 345.121094 357.703125 345.066406 356.964844 C 345.007812 356.222656 344.972656 355.472656 344.960938 354.710938 C 344.949219 353.953125 344.957031 353.183594 344.988281 352.414062 C 345.019531 351.640625 345.074219 350.863281 345.148438 350.085938 C 345.226562 349.308594 345.320312 348.535156 345.441406 347.757812 C 345.558594 346.984375 345.699219 346.214844 345.859375 345.449219 C 346.019531 344.6875 346.199219 343.929688 346.398438 343.183594 C 346.597656 342.4375 346.816406 341.703125 347.058594 340.980469 C 347.296875 340.257812 347.554688 339.550781 347.828125 338.863281 C 348.101562 338.171875 348.394531 337.5 348.703125 336.847656 C 349.011719 336.195312 349.335938 335.566406 349.671875 334.960938 C 350.011719 334.351562 350.363281 333.769531 350.730469 333.210938 C 351.097656 332.65625 351.476562 332.125 351.863281 331.625 C 352.253906 331.125 352.652344 330.65625 353.0625 330.214844 C 353.472656 329.773438 353.890625 329.367188 354.316406 328.992188 C 354.742188 328.613281 355.175781 328.273438 355.613281 327.96875 C 356.050781 327.660156 356.492188 327.390625 356.9375 327.152344 C 357.382812 326.917969 357.828125 326.71875 358.277344 326.558594 C 358.726562 326.398438 359.175781 326.273438 359.621094 326.1875 C 360.070312 326.101562 360.515625 326.050781 360.957031 326.042969 C 361.398438 326.03125 361.835938 326.058594 362.269531 326.125 Z M 362.269531 326.125 " fill-opacity="1" fill-rule="nonzero"/><path fill="#faebd9" d="M 267.019531 391.28125 C 267.019531 391.28125 267.308594 390.773438 267.796875 386.753906 C 268.25 382.980469 267.285156 379.832031 266.746094 378.292969 C 265.167969 373.789062 264.902344 373.851562 263.078125 369.484375 C 262.199219 367.375 261.300781 364.96875 260.769531 359.988281 C 260.535156 357.738281 260.757812 354.539062 261.203125 348.113281 C 261.234375 347.667969 261.382812 345.773438 262.09375 345.613281 C 262.433594 345.539062 264.339844 347.222656 264.339844 347.222656 C 264.339844 347.222656 264.921875 346.332031 266.34375 346.441406 C 268.386719 346.589844 267.785156 346.894531 268.050781 346.746094 C 269.085938 346.144531 268.027344 343.957031 268.726562 341.890625 C 269.394531 339.898438 271.664062 339.921875 273.921875 337.726562 C 277.777344 333.972656 277.511719 333.527344 282.695312 329.742188 C 286.011719 327.316406 287.824219 325.992188 290.621094 325.695312 C 292.933594 325.449219 295.148438 326.214844 299.566406 327.738281 C 302.988281 328.925781 304.226562 329.933594 305.425781 331.132812 C 307.875 333.570312 307.144531 336.1875 308.097656 338.148438 C 309.984375 342.03125 308.691406 346.003906 309.738281 346.398438 C 310.429688 346.652344 311.074219 345.304688 312.335938 345.476562 C 313.851562 345.675781 314.65625 347.902344 314.71875 348.105469 C 315.640625 350.753906 314.019531 353.363281 313.746094 353.816406 C 312.28125 356.191406 309.496094 357.941406 309.496094 357.941406 C 309.496094 357.941406 308.710938 361.25 308.308594 364.28125 C 307.789062 368.222656 301.007812 375.601562 301.007812 375.601562 C 301.007812 375.601562 300.191406 383.636719 300.191406 385.652344 C 300.203125 389.042969 302.097656 391.980469 304.039062 393.453125 C 305.851562 394.84375 306.675781 394.492188 306.675781 394.492188 C 306.675781 394.492188 306.527344 395.203125 304.292969 397.175781 C 302.246094 398.988281 301.230469 400.015625 297.339844 400.714844 C 293.082031 401.480469 293.082031 401.828125 283.414062 400.851562 C 281.117188 400.621094 276.984375 400.472656 276.496094 399.410156 C 275.988281 398.320312 277.535156 393.453125 277.535156 393.453125 C 277.535156 393.453125 277.003906 394.269531 273.855469 393.816406 C 267.402344 392.851562 267.019531 391.28125 267.019531 391.28125 Z M 267.019531 391.28125 " fill-opacity="1" fill-rule="nonzero"/><path fill="#faebd9" d="M 350.867188 403.089844 C 350.390625 398.660156 350.539062 397.144531 350.78125 396.6875 C 351.109375 396.09375 349.914062 396.804688 349.339844 396.210938 C 348.597656 395.4375 348.757812 393.910156 348.144531 393.65625 C 347.761719 393.496094 347.613281 394.027344 347.148438 393.878906 C 346.671875 393.71875 346.195312 392.964844 346.171875 392.183594 C 346.140625 391.035156 347.09375 390.550781 347.011719 389.574219 C 346.9375 388.769531 346.246094 388.746094 346.195312 388.175781 C 346.046875 386.585938 350.632812 384.589844 350.539062 382.832031 C 350.496094 382.035156 350.050781 384.328125 349.617188 383.085938 C 348.886719 381 350.707031 379.257812 353.230469 376.980469 C 353.71875 376.535156 355.878906 375.441406 357.40625 376.101562 C 362.449219 378.261719 361.984375 375.78125 364.273438 379.183594 C 365.597656 381.148438 363.679688 388.851562 363.425781 397.523438 C 363.328125 400.695312 362.089844 404.214844 360.339844 405.6875 C 358.59375 407.160156 356.347656 406.578125 356.347656 406.578125 C 356.347656 406.578125 351.460938 404.851562 351.238281 404.5625 " fill-opacity="1" fill-rule="nonzero"/><path fill="#231815" d="M 355.402344 395.734375 L 354.300781 409.089844 C 354.226562 410.042969 353.484375 410.765625 352.648438 410.710938 C 351.671875 410.648438 350.941406 409.683594 351.035156 408.59375 L 352.253906 394.949219 " fill-opacity="1" fill-rule="nonzero"/><path fill="#faebd9" d="M 267.019531 391.28125 C 267.019531 391.28125 267.308594 390.773438 267.796875 386.753906 C 268.25 382.980469 267.285156 379.832031 266.746094 378.292969 C 265.167969 373.789062 264.902344 373.851562 263.078125 369.484375 C 262.199219 367.375 261.300781 364.96875 260.769531 359.988281 C 260.535156 357.738281 260.757812 354.539062 261.203125 348.113281 C 261.234375 347.667969 261.382812 345.773438 262.09375 345.613281 C 262.433594 345.539062 264.339844 347.222656 264.339844 347.222656 C 264.339844 347.222656 264.921875 346.332031 266.34375 346.441406 C 268.386719 346.589844 267.785156 346.894531 268.050781 346.746094 C 269.085938 346.144531 268.664062 345.0625 268.726562 343.144531 C 268.800781 341.042969 271.652344 339.921875 273.910156 337.726562 C 277.765625 333.972656 277.503906 333.527344 282.683594 329.742188 C 286 327.316406 287.8125 325.992188 290.609375 325.695312 C 292.921875 325.449219 295.136719 326.214844 299.554688 327.738281 C 302.976562 328.925781 304.21875 329.933594 305.414062 331.132812 C 307.863281 333.570312 307.132812 336.1875 308.085938 338.148438 C 309.972656 342.03125 308.679688 346.003906 309.726562 346.398438 C 310.417969 346.652344 311.0625 345.304688 312.324219 345.476562 C 313.839844 345.675781 314.644531 347.902344 314.710938 348.105469 C 315.632812 350.753906 314.011719 353.363281 313.734375 353.816406 C 312.273438 356.191406 309.484375 357.941406 309.484375 357.941406 C 309.484375 357.941406 308.699219 361.25 308.296875 364.28125 C 307.777344 368.222656 300.996094 375.601562 300.996094 375.601562 C 300.996094 375.601562 300.179688 383.636719 300.179688 385.652344 C 300.191406 389.042969 302.085938 391.980469 304.027344 393.453125 C 305.839844 394.84375 306.664062 394.492188 306.664062 394.492188 C 306.664062 394.492188 306.515625 395.203125 304.28125 397.175781 C 302.234375 398.988281 301.21875 400.015625 297.328125 400.714844 C 293.070312 401.480469 293.070312 401.828125 283.40625 400.851562 C 281.105469 400.621094 276.972656 400.472656 276.484375 399.410156 C 275.976562 398.320312 277.523438 393.453125 277.523438 393.453125 C 277.523438 393.453125 276.992188 394.269531 273.847656 393.816406 C 267.402344 392.851562 267.019531 391.28125 267.019531 391.28125 Z M 267.019531 391.28125 " fill-opacity="1" fill-rule="nonzero"/><path fill="#231815" d="M 270.710938 365.921875 C 270.476562 365.921875 270.253906 365.796875 270.136719 365.574219 C 267.816406 360.878906 267.902344 357.71875 267.945312 356.023438 C 267.945312 355.832031 267.953125 355.664062 267.953125 355.503906 C 267.953125 353.550781 267.945312 352.25 267.933594 351.210938 C 267.910156 348.65625 267.890625 347.488281 268.101562 341.847656 C 268.113281 341.5 268.410156 341.222656 268.757812 341.234375 C 269.109375 341.246094 269.382812 341.542969 269.375 341.890625 C 269.160156 347.5 269.171875 348.65625 269.203125 351.1875 C 269.214844 352.238281 269.226562 353.542969 269.226562 355.503906 C 269.226562 355.671875 269.226562 355.851562 269.214844 356.054688 C 269.171875 357.644531 269.097656 360.589844 271.28125 365 C 271.441406 365.320312 271.3125 365.699219 270.996094 365.847656 C 270.898438 365.902344 270.804688 365.921875 270.710938 365.921875 Z M 270.710938 365.921875 " fill-opacity="1" fill-rule="nonzero"/><path fill="#231815" d="M 341.59375 419.636719 C 341.371094 419.636719 341.148438 419.519531 341.03125 419.296875 C 339.847656 417.09375 338.816406 415.121094 337.90625 413.382812 C 331.347656 400.875 330.65625 399.558594 321.246094 398.234375 C 319.5625 398 317.75 397.535156 315.652344 397.003906 C 313.828125 396.539062 311.761719 396.019531 309.472656 395.574219 C 309.125 395.511719 308.902344 395.171875 308.976562 394.832031 C 309.039062 394.480469 309.378906 394.257812 309.71875 394.332031 C 312.039062 394.789062 314.125 395.320312 315.960938 395.785156 C 318.027344 396.304688 319.804688 396.761719 321.417969 396.996094 C 326.34375 397.683594 329.109375 398.414062 331.507812 400.695312 C 333.828125 402.890625 335.671875 406.417969 339.03125 412.8125 C 339.941406 414.550781 340.980469 416.519531 342.15625 418.714844 C 342.324219 419.023438 342.210938 419.414062 341.890625 419.574219 C 341.796875 419.617188 341.699219 419.636719 341.59375 419.636719 Z M 341.59375 419.636719 " fill-opacity="1" fill-rule="nonzero"/><path fill="#231815" d="M 283.085938 350.296875 C 283.085938 350.5625 283.039062 350.820312 282.945312 351.066406 C 282.851562 351.308594 282.714844 351.527344 282.539062 351.714844 C 282.367188 351.902344 282.164062 352.046875 281.933594 352.148438 C 281.707031 352.25 281.46875 352.300781 281.222656 352.300781 C 280.972656 352.300781 280.738281 352.25 280.507812 352.148438 C 280.28125 352.046875 280.078125 351.902344 279.902344 351.714844 C 279.726562 351.527344 279.59375 351.308594 279.5 351.066406 C 279.402344 350.820312 279.355469 350.5625 279.355469 350.296875 C 279.355469 350.03125 279.402344 349.777344 279.5 349.53125 C 279.59375 349.285156 279.726562 349.070312 279.902344 348.882812 C 280.078125 348.695312 280.28125 348.550781 280.507812 348.445312 C 280.738281 348.34375 280.972656 348.292969 281.222656 348.292969 C 281.46875 348.292969 281.707031 348.34375 281.933594 348.445312 C 282.164062 348.550781 282.367188 348.695312 282.539062 348.882812 C 282.714844 349.070312 282.851562 349.285156 282.945312 349.53125 C 283.039062 349.777344 283.085938 350.03125 283.085938 350.296875 Z M 283.085938 350.296875 " fill-opacity="1" fill-rule="nonzero"/><path fill="#231815" d="M 302.574219 349.449219 C 302.574219 349.714844 302.527344 349.972656 302.429688 350.21875 C 302.332031 350.460938 302.191406 350.679688 302.011719 350.867188 C 301.828125 351.054688 301.621094 351.199219 301.382812 351.300781 C 301.148438 351.402344 300.902344 351.453125 300.648438 351.453125 C 300.390625 351.453125 300.144531 351.402344 299.910156 351.300781 C 299.671875 351.199219 299.464844 351.054688 299.28125 350.867188 C 299.101562 350.679688 298.960938 350.460938 298.863281 350.21875 C 298.765625 349.972656 298.71875 349.714844 298.71875 349.449219 C 298.71875 349.183594 298.765625 348.929688 298.863281 348.683594 C 298.960938 348.4375 299.101562 348.222656 299.28125 348.035156 C 299.464844 347.84375 299.671875 347.699219 299.910156 347.597656 C 300.144531 347.496094 300.390625 347.445312 300.648438 347.445312 C 300.902344 347.445312 301.148438 347.496094 301.382812 347.597656 C 301.621094 347.699219 301.828125 347.84375 302.011719 348.035156 C 302.191406 348.222656 302.332031 348.4375 302.429688 348.683594 C 302.527344 348.929688 302.574219 349.183594 302.574219 349.449219 Z M 302.574219 349.449219 " fill-opacity="1" fill-rule="nonzero"/><path fill="#231815" d="M 309.761719 358.292969 C 309.527344 358.292969 309.316406 358.164062 309.199219 357.953125 C 309.027344 357.644531 309.15625 357.253906 309.464844 357.09375 C 311.761719 355.875 314.253906 352.980469 314.304688 350.035156 C 314.339844 348.527344 313.957031 347.246094 313.246094 346.492188 C 312.980469 346.207031 312.484375 346.058594 311.921875 346.078125 C 311.234375 346.101562 310.578125 346.386719 310.246094 346.789062 C 310.023438 347.066406 309.621094 347.105469 309.359375 346.886719 C 309.082031 346.664062 309.039062 346.257812 309.261719 345.996094 C 309.824219 345.304688 310.820312 344.859375 311.867188 344.816406 C 312.8125 344.785156 313.640625 345.082031 314.167969 345.632812 C 315.449219 346.980469 315.597656 348.996094 315.578125 350.074219 C 315.503906 353.542969 312.738281 356.808594 310.058594 358.226562 C 309.960938 358.269531 309.855469 358.292969 309.761719 358.292969 Z M 309.761719 358.292969 " fill-opacity="1" fill-rule="nonzero"/><path fill="#231815" d="M 275.585938 344.179688 C 275.320312 344.179688 275.066406 344.011719 274.980469 343.738281 C 274.875 343.398438 275.054688 343.046875 275.394531 342.929688 C 278.03125 342.070312 280.882812 341.859375 283.636719 342.292969 C 283.988281 342.347656 284.222656 342.675781 284.167969 343.027344 C 284.113281 343.375 283.785156 343.609375 283.4375 343.554688 C 280.871094 343.152344 278.222656 343.355469 275.773438 344.148438 C 275.722656 344.171875 275.648438 344.179688 275.585938 344.179688 Z M 275.585938 344.179688 " fill-opacity="1" fill-rule="nonzero"/><path fill="#231815" d="M 296.132812 343.144531 C 295.878906 343.144531 295.632812 342.984375 295.539062 342.730469 C 295.421875 342.402344 295.589844 342.03125 295.921875 341.914062 C 298.644531 340.917969 301.15625 340.152344 304.226562 340.96875 C 304.566406 341.054688 304.769531 341.402344 304.683594 341.742188 C 304.597656 342.082031 304.25 342.285156 303.910156 342.199219 C 301.199219 341.476562 298.984375 342.15625 296.367188 343.109375 C 296.28125 343.121094 296.207031 343.144531 296.132812 343.144531 Z M 296.132812 343.144531 " fill-opacity="1" fill-rule="nonzero"/><path fill="#231815" d="M 290.386719 380.488281 C 288.617188 380.488281 286.796875 380.171875 284.984375 379.523438 C 281.675781 378.359375 278.433594 376.503906 276.101562 374.457031 C 275.839844 374.222656 275.816406 373.820312 276.050781 373.554688 C 276.285156 373.292969 276.6875 373.269531 276.949219 373.503906 C 279.164062 375.453125 282.25 377.214844 285.40625 378.328125 C 288.925781 379.566406 292.488281 379.503906 295.421875 378.144531 C 296.546875 377.628906 297.667969 376.9375 298.78125 376.121094 C 302.691406 373.207031 305.351562 369.515625 306.296875 367.800781 C 306.464844 367.492188 306.847656 367.375 307.164062 367.546875 C 307.472656 367.714844 307.585938 368.109375 307.417969 368.414062 C 307.144531 368.914062 304.589844 373.386719 299.554688 377.148438 C 298.378906 378.03125 297.179688 378.75 295.972656 379.3125 C 294.246094 380.085938 292.347656 380.488281 290.386719 380.488281 Z M 290.386719 380.488281 " fill-opacity="1" fill-rule="nonzero"/><path fill="#231815" d="M 309.769531 395.628906 C 309.726562 395.628906 309.675781 395.628906 309.632812 395.617188 C 309.421875 395.5625 309.210938 395.519531 309.007812 395.480469 C 306.210938 394.851562 303.785156 394.3125 302.257812 392.128906 C 299.503906 388.195312 299.140625 381.898438 299.96875 377.710938 C 300.042969 377.320312 300.105469 377.035156 300.148438 376.800781 C 300.285156 376.109375 300.328125 375.910156 300.476562 374.996094 C 300.53125 374.648438 300.859375 374.414062 301.207031 374.46875 C 301.558594 374.519531 301.792969 374.851562 301.738281 375.199219 C 301.589844 376.132812 301.535156 376.367188 301.398438 377.054688 C 301.355469 377.289062 301.292969 377.574219 301.21875 377.957031 C 300.117188 383.5625 301.527344 388.851562 303.304688 391.398438 C 304.546875 393.179688 306.539062 393.625 309.285156 394.226562 C 309.496094 394.269531 309.707031 394.324219 309.917969 394.367188 C 310.257812 394.441406 310.480469 394.777344 310.394531 395.128906 C 310.320312 395.425781 310.066406 395.628906 309.769531 395.628906 Z M 309.769531 395.628906 " fill-opacity="1" fill-rule="nonzero"/><path fill="#231815" d="M 306.847656 368.734375 C 306.738281 368.734375 306.632812 368.710938 306.539062 368.648438 C 306.230469 368.480469 306.125 368.085938 306.296875 367.777344 C 308.636719 363.625 308.921875 358.441406 308.945312 356.402344 C 308.988281 349.480469 308.871094 347.363281 308.222656 339.582031 C 308.191406 339.230469 308.457031 338.921875 308.804688 338.890625 C 309.15625 338.859375 309.464844 339.125 309.496094 339.476562 C 310.140625 347.296875 310.269531 349.441406 310.214844 356.414062 C 310.207031 358.546875 309.898438 363.996094 307.40625 368.40625 C 307.28125 368.617188 307.058594 368.734375 306.847656 368.734375 Z M 306.847656 368.734375 " fill-opacity="1" fill-rule="nonzero"/><path fill="#231815" d="M 268.058594 342.515625 C 267.835938 342.515625 267.625 342.402344 267.507812 342.1875 C 267.339844 341.882812 267.445312 341.5 267.753906 341.320312 C 271.726562 339.082031 274.578125 336.347656 277.320312 333.707031 C 280.160156 330.984375 283.109375 328.164062 287.21875 325.992188 C 290.652344 324.167969 294.011719 325.28125 297.246094 326.339844 C 298.285156 326.679688 299.257812 327.007812 300.242188 327.230469 C 300.582031 327.316406 300.796875 327.65625 300.722656 327.996094 C 300.636719 328.332031 300.296875 328.546875 299.957031 328.472656 C 298.917969 328.226562 297.871094 327.878906 296.851562 327.550781 C 293.726562 326.519531 290.78125 325.546875 287.8125 327.113281 C 283.859375 329.203125 281.117188 331.84375 278.203125 334.628906 C 275.394531 337.324219 272.480469 340.109375 268.367188 342.433594 C 268.273438 342.484375 268.164062 342.515625 268.058594 342.515625 Z M 268.058594 342.515625 " fill-opacity="1" fill-rule="nonzero"/><path fill="#231815" d="M 302.195312 325.734375 C 302.152344 325.734375 302.109375 325.734375 302.054688 325.726562 C 301.71875 325.652344 301.496094 325.3125 301.570312 324.972656 C 302.351562 321.304688 302.234375 317.457031 301.230469 313.832031 C 301.132812 313.492188 301.335938 313.140625 301.675781 313.046875 C 302.011719 312.953125 302.363281 313.152344 302.457031 313.492188 C 303.519531 317.320312 303.644531 321.378906 302.808594 325.25 C 302.746094 325.535156 302.480469 325.734375 302.195312 325.734375 Z M 302.195312 325.734375 " fill-opacity="1" fill-rule="nonzero"/><path fill="#231815" d="M 308.902344 340.777344 C 308.585938 340.777344 308.308594 340.546875 308.277344 340.226562 L 308.214844 339.773438 C 308.097656 338.828125 308.097656 338.828125 307.925781 338.234375 C 307.882812 338.066406 307.820312 337.851562 307.746094 337.566406 C 307.332031 336.019531 306.75 334.449219 306.125 333.15625 C 305.257812 331.375 303.488281 330.273438 301.601562 329.203125 C 301.292969 329.03125 301.1875 328.640625 301.355469 328.332031 C 301.527344 328.027344 301.917969 327.921875 302.226562 328.089844 C 304.21875 329.214844 306.242188 330.476562 307.269531 332.59375 C 307.9375 333.960938 308.542969 335.617188 308.976562 337.238281 C 309.050781 337.523438 309.113281 337.726562 309.15625 337.894531 C 309.347656 338.574219 309.347656 338.617188 309.472656 339.613281 L 309.527344 340.070312 C 309.570312 340.417969 309.324219 340.734375 308.976562 340.777344 C 308.953125 340.769531 308.921875 340.777344 308.902344 340.777344 Z M 308.902344 340.777344 " fill-opacity="1" fill-rule="nonzero"/><path fill="#231815" d="M 347.328125 390.261719 C 346.828125 390.261719 346.375 390.074219 346.046875 389.53125 C 345.25 388.21875 345.503906 387.402344 346.257812 386.363281 C 346.53125 385.992188 347.910156 384.515625 348.417969 384.082031 C 351.714844 381.261719 354.164062 380.796875 357.808594 380.890625 C 358.15625 380.902344 358.433594 381.1875 358.421875 381.550781 C 358.414062 381.898438 358.117188 382.175781 357.765625 382.164062 C 354.375 382.078125 352.234375 382.480469 349.234375 385.046875 C 348.78125 385.441406 347.476562 386.839844 347.273438 387.113281 C 346.714844 387.886719 346.691406 388.152344 347.125 388.875 C 347.199219 388.992188 347.347656 389.246094 348.894531 388.375 C 349.003906 388.324219 349.085938 388.269531 349.183594 388.21875 C 349.46875 388.058594 349.753906 387.910156 350.019531 387.761719 C 352.148438 386.59375 353.992188 385.589844 356.472656 385.640625 C 356.824219 385.652344 357.097656 385.9375 357.097656 386.289062 C 357.085938 386.636719 356.800781 386.914062 356.453125 386.914062 C 354.320312 386.859375 352.691406 387.75 350.644531 388.875 C 350.367188 389.023438 350.082031 389.183594 349.796875 389.339844 C 349.710938 389.382812 349.628906 389.4375 349.53125 389.488281 C 348.992188 389.777344 348.121094 390.261719 347.328125 390.261719 Z M 347.328125 390.261719 " fill-opacity="1" fill-rule="nonzero"/><path fill="#231815" d="M 347.339844 394.554688 C 347.167969 394.554688 347 394.523438 346.851562 394.441406 C 346.226562 394.121094 345.769531 393.519531 345.601562 392.777344 C 345.421875 391.980469 345.589844 391.152344 346.078125 390.507812 C 346.871094 389.445312 347.570312 389.054688 348.441406 388.566406 C 348.535156 388.515625 348.632812 388.460938 348.726562 388.40625 C 349.035156 388.238281 349.414062 388.34375 349.59375 388.652344 C 349.777344 388.960938 349.660156 389.339844 349.351562 389.519531 C 349.246094 389.574219 349.152344 389.636719 349.054688 389.691406 C 348.21875 390.15625 347.71875 390.445312 347.082031 391.28125 C 346.828125 391.628906 346.734375 392.066406 346.828125 392.5 C 346.914062 392.851562 347.105469 393.125 347.371094 393.285156 C 347.644531 393.242188 348.355469 392.808594 348.621094 392.636719 C 348.78125 392.542969 348.917969 392.445312 349.035156 392.394531 C 352.859375 390.304688 353.527344 390.347656 356.039062 390.878906 C 356.28125 390.929688 356.535156 390.984375 356.824219 391.035156 C 357.160156 391.101562 357.394531 391.441406 357.320312 391.789062 C 357.257812 392.140625 356.917969 392.363281 356.570312 392.289062 C 356.28125 392.234375 356.015625 392.171875 355.761719 392.117188 C 353.570312 391.652344 353.167969 391.566406 349.628906 393.507812 C 349.542969 393.550781 349.414062 393.632812 349.277344 393.71875 C 348.546875 394.183594 347.898438 394.554688 347.339844 394.554688 Z M 347.433594 393.316406 Z M 347.433594 393.316406 " fill-opacity="1" fill-rule="nonzero"/><path fill="#231815" d="M 358.167969 407.035156 C 358.125 407.035156 358.082031 407.035156 358.042969 407.035156 L 357.585938 407.023438 C 354.757812 406.960938 353.335938 406.917969 351.472656 405.039062 C 351.226562 404.785156 351.226562 404.382812 351.472656 404.140625 C 351.726562 403.894531 352.128906 403.894531 352.371094 404.140625 C 353.875 405.667969 354.894531 405.6875 357.617188 405.75 L 358.082031 405.761719 C 358.816406 405.78125 359.417969 405.601562 359.929688 405.222656 C 360.488281 404.617188 361.148438 403.84375 361.253906 403.621094 C 363.253906 397.917969 363.65625 391.332031 364.050781 384.960938 C 364.113281 383.976562 364.175781 382.96875 364.242188 381.984375 C 364.273438 381.507812 364.316406 380.964844 364.1875 380.5625 C 364.0625 380.140625 363.625 379.21875 363.445312 378.996094 C 361.941406 377.171875 361.359375 376.683594 356.601562 376.566406 C 356.25 376.554688 355.976562 376.269531 355.984375 375.910156 C 355.996094 375.558594 356.28125 375.285156 356.644531 375.292969 C 361.632812 375.421875 362.640625 375.996094 364.441406 378.1875 C 364.78125 378.601562 365.28125 379.714844 365.429688 380.214844 C 365.609375 380.839844 365.566406 381.527344 365.523438 382.078125 C 365.460938 383.054688 365.394531 384.074219 365.332031 385.046875 C 364.941406 391.503906 364.527344 398.183594 362.460938 404.054688 C 362.300781 404.519531 361.367188 405.550781 360.839844 406.121094 C 360.816406 406.144531 360.796875 406.164062 360.765625 406.1875 C 360.011719 406.746094 359.152344 407.035156 358.167969 407.035156 Z M 358.167969 407.035156 " fill-opacity="1" fill-rule="nonzero"/><path fill="#231815" d="M 349.734375 384.0625 C 349.605469 384.0625 349.488281 384.03125 349.363281 383.964844 C 348.894531 383.710938 348.886719 383.140625 348.886719 382.925781 C 348.875 382.046875 349.648438 380.191406 350.082031 379.664062 C 350.253906 379.449219 350.390625 379.28125 350.515625 379.121094 C 351.058594 378.441406 351.355469 378.0625 352.5625 377.171875 C 353.367188 376.578125 353.695312 376.386719 354.152344 376.121094 C 354.4375 375.953125 354.808594 375.75 355.414062 375.359375 C 355.710938 375.167969 356.101562 375.253906 356.292969 375.550781 C 356.484375 375.847656 356.398438 376.238281 356.101562 376.429688 C 355.476562 376.832031 355.09375 377.042969 354.789062 377.222656 C 354.355469 377.46875 354.066406 377.636719 353.324219 378.1875 C 352.253906 378.984375 352.042969 379.257812 351.523438 379.90625 C 351.398438 380.066406 351.25 380.257812 351.070312 380.46875 C 350.847656 380.734375 350.402344 381.773438 350.230469 382.460938 C 350.390625 382.386719 350.527344 382.332031 350.664062 382.28125 C 350.730469 382.257812 350.792969 382.226562 350.867188 382.207031 C 351.046875 382.132812 351.226562 382.058594 351.40625 381.984375 C 352.191406 381.664062 353.007812 381.328125 353.769531 381.179688 C 354.109375 381.113281 354.449219 381.335938 354.523438 381.675781 C 354.585938 382.015625 354.363281 382.355469 354.023438 382.429688 C 353.378906 382.554688 352.625 382.863281 351.894531 383.160156 C 351.714844 383.234375 351.523438 383.308594 351.34375 383.382812 C 351.257812 383.414062 351.183594 383.445312 351.109375 383.46875 C 350.921875 383.542969 350.792969 383.585938 350.632812 383.691406 C 350.367188 383.859375 350.0625 384.0625 349.734375 384.0625 Z M 350.167969 383.074219 Z M 350.167969 383.074219 " fill-opacity="1" fill-rule="nonzero"/><path fill="#231815" d="M 351.90625 405.222656 C 351.808594 405.222656 351.726562 405.199219 351.628906 405.15625 C 349.722656 404.257812 348.9375 399.996094 349.414062 396.582031 C 349.46875 396.230469 349.785156 395.988281 350.136719 396.039062 C 350.484375 396.09375 350.730469 396.410156 350.675781 396.761719 C 350.210938 400.164062 351.109375 403.515625 352.179688 404.011719 C 352.5 404.160156 352.636719 404.542969 352.488281 404.859375 C 352.371094 405.082031 352.148438 405.222656 351.90625 405.222656 Z M 351.90625 405.222656 " fill-opacity="1" fill-rule="nonzero"/><path fill="#231815" d="M 356.589844 397.472656 C 356.472656 397.472656 356.367188 397.441406 356.261719 397.375 C 355.878906 397.144531 355.5625 396.886719 355.242188 396.644531 C 354.617188 396.15625 354.078125 395.734375 353.230469 395.59375 C 352.988281 395.554688 352.371094 395.890625 351.925781 396.125 C 350.996094 396.625 349.945312 397.195312 348.96875 396.75 C 348.324219 396.453125 347.890625 395.777344 347.644531 394.671875 C 347.570312 394.332031 347.792969 393.996094 348.132812 393.921875 C 348.472656 393.847656 348.8125 394.070312 348.886719 394.40625 C 349.023438 395.066406 349.246094 395.488281 349.488281 395.605469 C 349.882812 395.785156 350.675781 395.363281 351.300781 395.011719 C 352.042969 394.609375 352.742188 394.238281 353.410156 394.34375 C 354.585938 394.535156 355.339844 395.128906 356.007812 395.648438 C 356.304688 395.882812 356.578125 396.105469 356.898438 396.296875 C 357.195312 396.476562 357.289062 396.867188 357.109375 397.164062 C 357.011719 397.355469 356.800781 397.472656 356.589844 397.472656 Z M 356.589844 397.472656 " fill-opacity="1" fill-rule="nonzero"/><path fill="#231815" d="M 264.351562 347.847656 C 264.140625 347.847656 263.9375 347.742188 263.820312 347.5625 C 263.628906 347.265625 263.714844 346.875 264.011719 346.683594 C 265.292969 345.855469 267.796875 345.261719 268.949219 346.175781 C 269.226562 346.398438 269.269531 346.789062 269.054688 347.066406 C 268.832031 347.339844 268.441406 347.382812 268.164062 347.171875 C 267.679688 346.777344 265.875 347 264.710938 347.753906 C 264.585938 347.816406 264.46875 347.847656 264.351562 347.847656 Z M 264.351562 347.847656 " fill-opacity="1" fill-rule="nonzero"/><g clip-path="url(#8cbf2a5dca)"><path fill="#231815" d="M 243.050781 478.34375 C 240.316406 478.34375 237.316406 477.496094 233.988281 475.523438 C 233.683594 475.34375 233.585938 474.953125 233.765625 474.65625 C 233.945312 474.359375 234.339844 474.253906 234.636719 474.433594 C 239.976562 477.601562 244.757812 477.910156 249.230469 475.367188 C 253.59375 472.875 257.089844 467.976562 259.636719 463.980469 C 267.425781 451.789062 272.117188 422.648438 274.917969 405.242188 C 275.667969 400.578125 276.273438 396.804688 276.78125 394.34375 C 275.890625 394.25 275.140625 394.175781 274.460938 394.109375 C 271.15625 393.792969 269.914062 393.667969 265.113281 391.960938 C 264.785156 391.84375 264.605469 391.480469 264.730469 391.144531 C 264.847656 390.8125 265.210938 390.632812 265.546875 390.761719 C 270.199219 392.414062 271.398438 392.53125 274.585938 392.851562 C 275.445312 392.933594 276.410156 393.03125 277.617188 393.167969 C 277.800781 393.1875 277.957031 393.285156 278.0625 393.433594 C 278.167969 393.582031 278.203125 393.761719 278.167969 393.941406 C 277.640625 396.328125 276.992188 400.355469 276.175781 405.464844 C 273.359375 422.964844 268.644531 452.265625 260.707031 464.679688 C 256.203125 471.71875 250.691406 478.34375 243.050781 478.34375 Z M 243.050781 478.34375 " fill-opacity="1" fill-rule="nonzero"/></g><path fill="#231815" d="M 240.972656 445.671875 C 240.929688 445.671875 240.898438 445.671875 240.855469 445.664062 C 240.507812 445.597656 240.285156 445.269531 240.347656 444.921875 C 243.527344 427.367188 249.484375 417.527344 255.800781 407.117188 C 258.765625 402.230469 261.828125 397.175781 264.773438 391.070312 C 264.921875 390.75 265.304688 390.625 265.621094 390.773438 C 265.941406 390.921875 266.066406 391.300781 265.917969 391.621094 C 262.953125 397.769531 259.867188 402.855469 256.890625 407.777344 C 250.636719 418.089844 244.734375 427.832031 241.597656 445.144531 C 241.546875 445.460938 241.269531 445.671875 240.972656 445.671875 Z M 240.972656 445.671875 " fill-opacity="1" fill-rule="nonzero"/><path fill="#231815" d="M 266.925781 392.308594 C 266.871094 392.308594 266.820312 392.296875 266.765625 392.289062 C 266.429688 392.203125 266.214844 391.851562 266.300781 391.515625 C 268.683594 382.078125 266.777344 378.613281 264.382812 374.214844 C 263.070312 371.816406 261.585938 369.105469 260.714844 365.085938 C 259.730469 360.515625 259.675781 354.929688 260.578125 348.019531 C 260.589844 347.957031 260.589844 347.765625 260.589844 347.605469 C 260.597656 346.628906 260.640625 345.910156 261.054688 345.550781 C 261.890625 344.785156 262.558594 344.828125 262.972656 344.996094 C 264.574219 345.644531 264.914062 349.152344 265.261719 354.433594 C 265.398438 356.511719 265.527344 358.480469 265.800781 359.308594 C 266.460938 361.3125 267.167969 361.800781 268.460938 362.691406 C 269.046875 363.09375 269.714844 363.558594 270.507812 364.25 C 270.773438 364.480469 270.804688 364.886719 270.570312 365.148438 C 270.339844 365.414062 269.9375 365.445312 269.671875 365.214844 C 268.941406 364.566406 268.304688 364.132812 267.742188 363.75 C 266.375 362.808594 265.390625 362.128906 264.59375 359.710938 C 264.277344 358.726562 264.148438 356.773438 264 354.515625 C 263.882812 352.652344 263.746094 350.542969 263.472656 348.898438 C 263.078125 346.523438 262.589844 346.21875 262.507812 346.175781 C 262.433594 346.144531 262.253906 346.195312 261.964844 346.449219 C 261.890625 346.671875 261.882812 347.339844 261.871094 347.636719 C 261.871094 347.871094 261.859375 348.0625 261.851562 348.199219 C 259.890625 363.347656 262.878906 368.796875 265.515625 373.621094 C 267.953125 378.074219 270.0625 381.921875 267.5625 391.84375 C 267.464844 392.117188 267.210938 392.308594 266.925781 392.308594 Z M 261.976562 346.417969 Z M 261.976562 346.417969 " fill-opacity="1" fill-rule="nonzero"/><path fill="#231815" d="M 276.515625 394.070312 C 276.464844 394.070312 276.410156 394.058594 276.359375 394.046875 C 276.019531 393.960938 275.816406 393.613281 275.902344 393.273438 C 276.972656 389.191406 277.417969 380.667969 276.378906 375.804688 C 275.902344 373.554688 274.777344 371.332031 272.765625 368.5625 C 271.082031 366.261719 269.332031 364.851562 267.382812 363.367188 C 267.105469 363.15625 267.042969 362.753906 267.253906 362.476562 C 267.464844 362.203125 267.871094 362.140625 268.144531 362.351562 C 270.105469 363.835938 272.011719 365.371094 273.792969 367.8125 C 275.921875 370.726562 277.109375 373.109375 277.628906 375.539062 C 278.710938 380.574219 278.253906 389.371094 277.140625 393.59375 C 277.058594 393.878906 276.800781 394.070312 276.515625 394.070312 Z M 276.515625 394.070312 " fill-opacity="1" fill-rule="nonzero"/><path fill="#231815" d="M 268.070312 363.824219 C 267.816406 363.824219 267.582031 363.675781 267.476562 363.433594 C 266.578125 361.226562 266.3125 357.6875 266.078125 354.570312 C 265.960938 352.980469 265.84375 351.476562 265.664062 350.457031 C 265.644531 350.339844 265.582031 349.980469 265.453125 349.851562 C 265.378906 349.820312 265.210938 349.800781 265.113281 349.820312 C 264.921875 350.042969 264.605469 350.117188 264.328125 349.96875 C 264.023438 349.8125 263.894531 349.417969 264.066406 349.109375 C 264.214844 348.835938 264.5 348.644531 264.859375 348.570312 C 265.273438 348.496094 265.886719 348.550781 266.257812 348.878906 C 266.683594 349.238281 266.820312 349.769531 266.90625 350.234375 C 267.09375 351.316406 267.210938 352.851562 267.339844 354.476562 C 267.574219 357.507812 267.828125 360.941406 268.652344 362.957031 C 268.78125 363.285156 268.632812 363.65625 268.304688 363.78125 C 268.238281 363.804688 268.15625 363.824219 268.070312 363.824219 Z M 265.199219 349.703125 Z M 265.199219 349.703125 " fill-opacity="1" fill-rule="nonzero"/><path fill="#231815" d="M 289.847656 402.699219 C 284.773438 402.699219 279.621094 401.628906 276.316406 400.546875 C 275.976562 400.441406 275.796875 400.078125 275.914062 399.742188 C 276.019531 399.402344 276.378906 399.222656 276.71875 399.335938 C 280.226562 400.480469 285.875 401.617188 291.234375 401.394531 C 298.261719 401.097656 303.285156 398.660156 306.15625 394.132812 C 306.347656 393.835938 306.738281 393.75 307.035156 393.941406 C 307.332031 394.132812 307.417969 394.523438 307.226562 394.820312 C 305.554688 397.460938 303.167969 399.464844 300.148438 400.789062 C 297.625 401.890625 294.636719 402.527344 291.277344 402.667969 C 290.8125 402.6875 290.335938 402.699219 289.847656 402.699219 Z M 289.847656 402.699219 " fill-opacity="1" fill-rule="nonzero"/><g clip-path="url(#2fbaa2e71b)"><path fill="#231815" d="M 380.730469 478.769531 L 214.164062 478.769531 C 213.8125 478.769531 213.527344 478.484375 213.527344 478.132812 C 213.527344 477.785156 213.8125 477.496094 214.164062 477.496094 L 380.742188 477.496094 C 381.089844 477.496094 381.375 477.785156 381.375 478.132812 C 381.375 478.484375 381.089844 478.769531 380.730469 478.769531 Z M 380.730469 478.769531 " fill-opacity="1" fill-rule="nonzero"/></g><path fill="#231815" d="M 234.308594 475.609375 C 234.179688 475.609375 234.042969 475.566406 233.925781 475.484375 C 232.25 474.230469 231.023438 472.375 230.070312 469.632812 C 229.039062 466.683594 228.332031 462.613281 227.875 457.1875 C 227.007812 446.796875 227.375 443.722656 228.628906 433.515625 L 228.667969 433.144531 C 229.847656 423.484375 231.488281 415.683594 233.839844 408.570312 C 234.457031 406.714844 235.832031 404.035156 237.699219 402.613281 C 239.925781 400.917969 242.816406 399.921875 244.863281 399.378906 C 245.5625 399.199219 246.238281 399.019531 246.90625 398.839844 C 252.460938 397.386719 257.25 396.136719 263.332031 393.558594 C 263.660156 393.421875 264.03125 393.570312 264.171875 393.898438 C 264.308594 394.226562 264.160156 394.597656 263.832031 394.738281 C 257.664062 397.34375 252.832031 398.605469 247.234375 400.070312 C 246.570312 400.238281 245.890625 400.417969 245.191406 400.609375 C 242.425781 401.339844 240.09375 402.378906 238.472656 403.628906 C 236.945312 404.796875 235.652344 407.148438 235.058594 408.972656 C 232.738281 416 231.117188 423.742188 229.953125 433.300781 L 229.910156 433.671875 C 228.679688 443.785156 228.308594 446.839844 229.167969 457.089844 C 229.996094 466.992188 231.660156 472.1875 234.710938 474.464844 C 234.996094 474.675781 235.050781 475.070312 234.835938 475.355469 C 234.699219 475.523438 234.507812 475.609375 234.308594 475.609375 Z M 234.308594 475.609375 " fill-opacity="1" fill-rule="nonzero"/><path fill="#ffffff" d="M 360.007812 329.6875 C 360.582031 329.78125 361.125 330 361.648438 330.339844 C 362.167969 330.683594 362.652344 331.144531 363.101562 331.722656 C 363.550781 332.300781 363.957031 332.984375 364.316406 333.777344 C 364.675781 334.570312 364.984375 335.457031 365.242188 336.433594 C 365.5 337.410156 365.703125 338.460938 365.847656 339.582031 C 365.992188 340.707031 366.078125 341.882812 366.105469 343.109375 C 366.132812 344.335938 366.101562 345.589844 366.007812 346.871094 C 365.914062 348.152344 365.765625 349.4375 365.558594 350.726562 C 365.351562 352.015625 365.089844 353.285156 364.773438 354.53125 C 364.457031 355.777344 364.09375 356.980469 363.683594 358.132812 C 363.273438 359.289062 362.820312 360.378906 362.332031 361.398438 C 361.839844 362.417969 361.320312 363.351562 360.765625 364.199219 C 360.214844 365.046875 359.644531 365.789062 359.054688 366.429688 C 358.460938 367.066406 357.863281 367.589844 357.253906 368 C 356.644531 368.40625 356.039062 368.691406 355.4375 368.851562 C 354.835938 369.011719 354.25 369.046875 353.675781 368.957031 C 353.105469 368.863281 352.558594 368.644531 352.039062 368.304688 C 351.515625 367.960938 351.03125 367.5 350.582031 366.921875 C 350.132812 366.34375 349.730469 365.660156 349.371094 364.867188 C 349.007812 364.074219 348.699219 363.1875 348.441406 362.210938 C 348.183594 361.234375 347.984375 360.183594 347.839844 359.0625 C 347.691406 357.9375 347.605469 356.761719 347.578125 355.535156 C 347.554688 354.308594 347.585938 353.054688 347.679688 351.773438 C 347.769531 350.492188 347.921875 349.207031 348.128906 347.917969 C 348.335938 346.628906 348.597656 345.359375 348.914062 344.113281 C 349.226562 342.867188 349.589844 341.664062 350.003906 340.511719 C 350.414062 339.355469 350.863281 338.265625 351.355469 337.246094 C 351.84375 336.226562 352.367188 335.292969 352.917969 334.445312 C 353.46875 333.597656 354.042969 332.855469 354.632812 332.214844 C 355.222656 331.578125 355.824219 331.054688 356.433594 330.644531 C 357.039062 330.238281 357.644531 329.953125 358.246094 329.792969 C 358.847656 329.628906 359.4375 329.597656 360.007812 329.6875 Z M 360.007812 329.6875 " fill-opacity="1" fill-rule="nonzero"/><path fill="#dcd6cb" d="M 360.703125 338.5625 C 360.511719 338.5625 360.320312 338.476562 360.191406 338.308594 C 359.980469 338.03125 360.035156 337.628906 360.320312 337.417969 L 362.492188 335.773438 C 362.769531 335.5625 363.171875 335.617188 363.382812 335.902344 C 363.59375 336.179688 363.542969 336.582031 363.253906 336.792969 L 361.082031 338.4375 C 360.976562 338.519531 360.839844 338.5625 360.703125 338.5625 Z M 360.703125 338.5625 " fill-opacity="1" fill-rule="nonzero"/><path fill="#dcd6cb" d="M 360.902344 341.550781 C 360.710938 341.550781 360.519531 341.46875 360.394531 341.296875 C 360.183594 341.023438 360.234375 340.621094 360.519531 340.40625 L 364.472656 337.417969 C 364.75 337.207031 365.152344 337.257812 365.363281 337.546875 C 365.578125 337.820312 365.523438 338.222656 365.238281 338.4375 L 361.285156 341.425781 C 361.179688 341.511719 361.039062 341.550781 360.902344 341.550781 Z M 360.902344 341.550781 " fill-opacity="1" fill-rule="nonzero"/><path fill="#231815" d="M 358.042969 369.996094 L 357.023438 382.398438 L 353.738281 381.996094 L 354.839844 369.632812 " fill-opacity="1" fill-rule="nonzero"/><g clip-path="url(#eada25d329)"><path fill="#231815" d="M 323.199219 478.769531 C 323.164062 478.769531 323.125 478.769531 323.082031 478.757812 C 322.730469 478.695312 322.507812 478.367188 322.5625 478.015625 C 322.722656 477.117188 322.890625 476.183594 323.058594 475.238281 C 324.828125 465.347656 327.035156 453.03125 327.457031 446.382812 C 327.957031 438.644531 324.394531 431.703125 321.320312 427.226562 C 321.121094 426.941406 321.195312 426.539062 321.480469 426.347656 C 321.765625 426.148438 322.167969 426.222656 322.359375 426.507812 C 325.550781 431.140625 329.238281 438.359375 328.71875 446.457031 C 328.296875 453.179688 326.082031 465.527344 324.300781 475.460938 C 324.128906 476.40625 323.960938 477.339844 323.800781 478.238281 C 323.769531 478.558594 323.503906 478.769531 323.199219 478.769531 Z M 323.199219 478.769531 " fill-opacity="1" fill-rule="nonzero"/></g><path fill="#231815" d="M 336.519531 472.621094 C 334.21875 472.621094 332.320312 472.324219 330.636719 471.6875 C 328.453125 470.871094 326.578125 469.484375 324.882812 467.425781 C 324.660156 467.152344 324.703125 466.757812 324.96875 466.535156 C 325.242188 466.3125 325.636719 466.355469 325.859375 466.621094 C 328.589844 469.9375 331.738281 471.347656 336.550781 471.347656 C 336.910156 471.347656 337.292969 471.339844 337.671875 471.328125 C 343.046875 471.105469 347.464844 467.882812 350.8125 461.753906 C 354.988281 454.113281 355.804688 447.921875 357.054688 438.539062 C 357.171875 437.679688 357.289062 436.789062 357.417969 435.867188 C 357.703125 433.726562 358.117188 431.332031 358.539062 428.785156 C 361.148438 413.382812 361.09375 408.855469 361.050781 405.222656 C 361.050781 404.871094 361.328125 404.585938 361.675781 404.574219 C 361.675781 404.574219 361.675781 404.574219 361.6875 404.574219 C 362.035156 404.574219 362.324219 404.851562 362.324219 405.199219 C 362.40625 413.480469 360.957031 422.085938 359.789062 429 C 359.367188 431.53125 358.953125 433.929688 358.667969 436.039062 C 358.539062 436.949219 358.421875 437.839844 358.304688 438.699219 C 357.085938 447.878906 356.207031 454.515625 351.917969 462.359375 C 350.273438 465.371094 348.335938 467.765625 346.152344 469.460938 C 343.652344 471.414062 340.808594 472.460938 337.714844 472.597656 C 337.3125 472.609375 336.910156 472.621094 336.519531 472.621094 Z M 336.519531 472.621094 " fill-opacity="1" fill-rule="nonzero"/><path fill="#231815" d="M 336.359375 442.1875 C 336.328125 442.1875 336.285156 442.1875 336.253906 442.175781 C 335.902344 442.113281 335.679688 441.78125 335.734375 441.445312 C 335.820312 440.976562 337.769531 429.855469 339.253906 425.265625 C 342.125 416.40625 349.382812 401.902344 349.457031 401.753906 C 349.617188 401.4375 350 401.308594 350.316406 401.46875 C 350.632812 401.628906 350.761719 402.007812 350.601562 402.328125 C 350.527344 402.476562 343.3125 416.890625 340.472656 425.660156 C 339.007812 430.164062 337.015625 441.550781 336.996094 441.667969 C 336.933594 441.972656 336.65625 442.1875 336.359375 442.1875 Z M 336.359375 442.1875 " fill-opacity="1" fill-rule="nonzero"/><path fill="#231815" d="M 320.175781 397.84375 C 320.039062 397.84375 319.914062 397.800781 319.796875 397.714844 C 319.519531 397.503906 319.457031 397.101562 319.667969 396.824219 C 321.429688 394.503906 322.085938 391.292969 321.394531 388.449219 C 321.140625 387.402344 320.726562 386.414062 320.285156 385.367188 C 319.996094 384.675781 319.691406 383.964844 319.445312 383.234375 C 317.496094 377.5 318.789062 371.320312 320.039062 365.339844 C 321.429688 358.683594 322.742188 352.398438 319.914062 346.789062 C 319.625 346.21875 319.289062 345.644531 318.957031 345.09375 C 318.40625 344.160156 317.835938 343.195312 317.441406 342.144531 C 316.785156 340.367188 316.679688 338.46875 316.59375 336.632812 C 316.574219 336.167969 316.542969 335.679688 316.511719 335.203125 C 315.84375 326.03125 307.671875 311.253906 297.742188 309.621094 C 292.71875 308.796875 287.527344 308.660156 282.738281 309.210938 C 277.195312 309.84375 272.542969 311.351562 268.898438 313.695312 C 266.394531 315.292969 263.621094 318.347656 260.886719 322.523438 C 258.691406 325.863281 256.921875 329.277344 256 331.375 C 253.902344 336.113281 253.796875 341.265625 253.691406 346.726562 C 253.59375 351.410156 253.488281 356.257812 251.996094 360.78125 C 251.707031 361.652344 251.359375 362.519531 251.019531 363.367188 C 249.96875 366.007812 248.972656 368.511719 249.566406 371.035156 C 249.832031 372.136719 250.382812 373.132812 250.964844 374.191406 C 251.371094 374.925781 251.792969 375.6875 252.109375 376.492188 C 253.222656 379.292969 253.085938 382.40625 252.957031 385.417969 C 252.800781 389.023438 252.652344 392.4375 254.570312 395.128906 C 254.769531 395.414062 254.707031 395.808594 254.421875 396.019531 C 254.136719 396.222656 253.742188 396.15625 253.53125 395.871094 C 251.359375 392.828125 251.527344 389.035156 251.6875 385.367188 C 251.8125 382.492188 251.941406 379.515625 250.925781 376.96875 C 250.628906 376.238281 250.246094 375.539062 249.84375 374.808594 C 249.238281 373.714844 248.625 372.589844 248.328125 371.320312 C 247.640625 368.414062 248.75 365.605469 249.832031 362.890625 C 250.160156 362.066406 250.5 361.207031 250.777344 360.367188 C 252.207031 356.035156 252.3125 351.285156 252.40625 346.695312 C 252.515625 341.351562 252.628906 335.839844 254.824219 330.855469 C 256.878906 326.191406 262.328125 316.386719 268.199219 312.625 C 272.011719 310.183594 276.84375 308.605469 282.578125 307.949219 C 287.484375 307.386719 292.792969 307.523438 297.933594 308.371094 C 302.789062 309.167969 307.652344 312.898438 311.636719 318.867188 C 315.058594 323.996094 317.410156 330.21875 317.761719 335.117188 C 317.792969 335.605469 317.824219 336.09375 317.847656 336.570312 C 317.941406 338.394531 318.027344 340.109375 318.621094 341.699219 C 318.96875 342.65625 319.488281 343.523438 320.039062 344.445312 C 320.378906 345.019531 320.730469 345.601562 321.035156 346.21875 C 324.066406 352.21875 322.648438 359.023438 321.269531 365.59375 C 320.050781 371.40625 318.800781 377.425781 320.632812 382.820312 C 320.867188 383.511719 321.164062 384.199219 321.4375 384.867188 C 321.882812 385.917969 322.339844 387 322.613281 388.144531 C 323.410156 391.398438 322.679688 394.925781 320.664062 397.589844 C 320.558594 397.757812 320.367188 397.84375 320.175781 397.84375 Z M 320.175781 397.84375 " fill-opacity="1" fill-rule="nonzero"/><path fill="#231815" d="M 292.867188 359.402344 C 292.644531 359.402344 292.433594 359.289062 292.316406 359.085938 C 292.148438 358.777344 292.253906 358.398438 292.550781 358.21875 C 293.089844 357.910156 293.441406 357.625 293.664062 357.304688 C 293.90625 356.964844 293.992188 356.5625 293.875 356.257812 C 293.789062 356.023438 293.578125 355.789062 293.34375 355.546875 C 293.300781 355.503906 293.261719 355.460938 293.230469 355.417969 C 292.117188 354.210938 291.34375 352.714844 290.980469 351.113281 C 290.90625 350.773438 291.121094 350.4375 291.457031 350.351562 C 291.796875 350.277344 292.136719 350.488281 292.222656 350.828125 C 292.539062 352.21875 293.207031 353.5 294.171875 354.550781 C 294.214844 354.589844 294.246094 354.632812 294.289062 354.675781 C 294.574219 354.984375 294.902344 355.332031 295.074219 355.820312 C 295.328125 356.519531 295.1875 357.347656 294.703125 358.035156 C 294.265625 358.652344 293.664062 359.042969 293.1875 359.320312 C 293.089844 359.371094 292.972656 359.402344 292.867188 359.402344 Z M 292.867188 359.402344 " fill-opacity="1" fill-rule="nonzero"/><path fill="#ffffff" d="M 286.933594 365.140625 C 287.507812 366.996094 287.972656 368.054688 289.234375 369.253906 C 289.773438 369.761719 290.398438 370.207031 291.128906 370.375 C 292.539062 370.695312 294.003906 369.867188 294.851562 368.710938 C 295.707031 367.554688 296.046875 366.136719 296.207031 364.492188 L 296.292969 364.492188 C 293.238281 365.277344 290.015625 365.363281 286.933594 364.726562 " fill-opacity="1" fill-rule="nonzero"/><path fill="#231815" d="M 291.746094 371.074219 C 291.492188 371.074219 291.234375 371.042969 290.980469 370.992188 C 290.238281 370.820312 289.519531 370.398438 288.789062 369.707031 C 287.441406 368.425781 286.914062 367.269531 286.320312 365.320312 C 286.277344 365.183594 286.289062 365.042969 286.328125 364.917969 C 286.289062 364.8125 286.277344 364.695312 286.308594 364.578125 C 286.382812 364.238281 286.710938 364.015625 287.0625 364.078125 C 289.964844 364.683594 293.027344 364.621094 295.910156 363.910156 C 296.003906 363.855469 296.101562 363.835938 296.21875 363.835938 L 296.300781 363.835938 C 296.621094 363.835938 296.894531 364.070312 296.9375 364.386719 C 296.957031 364.546875 296.917969 364.703125 296.832031 364.832031 C 296.621094 366.6875 296.175781 368 295.378906 369.070312 C 294.574219 370.144531 293.21875 371.074219 291.746094 371.074219 Z M 287.707031 365.511719 C 288.183594 366.960938 288.628906 367.8125 289.667969 368.796875 C 290.230469 369.328125 290.75 369.644531 291.269531 369.761719 C 292.464844 370.035156 293.671875 369.242188 294.339844 368.332031 C 294.902344 367.566406 295.261719 366.625 295.464844 365.332031 C 292.921875 365.859375 290.273438 365.914062 287.707031 365.511719 Z M 287.707031 365.511719 " fill-opacity="1" fill-rule="nonzero"/><g fill="#000000" fill-opacity="1"><g transform="translate(169.214814, 526.461696)"><g><path d="M 10.53125 0.375 C 7.601562 0.375 5.347656 -0.695312 3.765625 -2.84375 C 2.191406 -4.988281 1.40625 -7.941406 1.40625 -11.703125 C 1.40625 -15.453125 2.191406 -18.398438 3.765625 -20.546875 C 5.347656 -22.691406 7.601562 -23.765625 10.53125 -23.765625 C 13.40625 -23.765625 15.640625 -22.703125 17.234375 -20.578125 C 18.835938 -18.460938 19.640625 -15.503906 19.640625 -11.703125 C 19.640625 -7.898438 18.835938 -4.9375 17.234375 -2.8125 C 15.640625 -0.6875 13.40625 0.375 10.53125 0.375 Z M 10.53125 -2.515625 C 12.425781 -2.515625 13.898438 -3.3125 14.953125 -4.90625 C 16.003906 -6.507812 16.53125 -8.773438 16.53125 -11.703125 C 16.53125 -14.609375 16.003906 -16.859375 14.953125 -18.453125 C 13.898438 -20.054688 12.425781 -20.859375 10.53125 -20.859375 C 8.625 -20.859375 7.144531 -20.054688 6.09375 -18.453125 C 5.050781 -16.859375 4.53125 -14.609375 4.53125 -11.703125 C 4.53125 -8.773438 5.050781 -6.507812 6.09375 -4.90625 C 7.144531 -3.3125 8.625 -2.515625 10.53125 -2.515625 Z M 10.53125 -2.515625 "/></g></g></g><g fill="#000000" fill-opacity="1"><g transform="translate(190.268025, 526.461696)"><g><path d="M 5.9375 0.03125 C 5.53125 0.03125 5.1875 -0.101562 4.90625 -0.375 C 4.625 -0.65625 4.484375 -1 4.484375 -1.40625 C 4.484375 -1.8125 4.625 -2.160156 4.90625 -2.453125 C 5.1875 -2.742188 5.53125 -2.890625 5.9375 -2.890625 L 9.890625 -2.890625 L 9.890625 -19.28125 C 9.890625 -19.4375 9.847656 -19.539062 9.765625 -19.59375 C 9.691406 -19.644531 9.578125 -19.628906 9.421875 -19.546875 L 6.5 -18.140625 C 6.207031 -18.003906 5.953125 -17.9375 5.734375 -17.9375 C 5.304688 -17.9375 4.953125 -18.070312 4.671875 -18.34375 C 4.390625 -18.625 4.25 -18.976562 4.25 -19.40625 C 4.25 -20.050781 4.550781 -20.519531 5.15625 -20.8125 L 9.71875 -23.203125 C 9.96875 -23.359375 10.28125 -23.4375 10.65625 -23.4375 L 11.359375 -23.4375 C 11.804688 -23.4375 12.191406 -23.269531 12.515625 -22.9375 C 12.835938 -22.613281 13 -22.234375 13 -21.796875 L 13 -2.890625 L 16.296875 -2.890625 C 16.691406 -2.890625 17.035156 -2.742188 17.328125 -2.453125 C 17.617188 -2.160156 17.765625 -1.8125 17.765625 -1.40625 C 17.765625 -1 17.617188 -0.65625 17.328125 -0.375 C 17.035156 -0.101562 16.691406 0.03125 16.296875 0.03125 Z M 5.9375 0.03125 "/></g></g></g><g fill="#000000" fill-opacity="1"><g transform="translate(211.321237, 526.461696)"><g><path d="M 4.1875 0.140625 C 3.675781 0.140625 3.226562 -0.046875 2.84375 -0.421875 C 2.46875 -0.804688 2.28125 -1.257812 2.28125 -1.78125 L 2.28125 -1.984375 C 2.28125 -2.492188 2.46875 -2.9375 2.84375 -3.3125 C 3.226562 -3.695312 3.675781 -3.890625 4.1875 -3.890625 L 4.53125 -3.890625 C 5.039062 -3.890625 5.484375 -3.695312 5.859375 -3.3125 C 6.242188 -2.9375 6.4375 -2.492188 6.4375 -1.984375 L 6.4375 -1.78125 C 6.4375 -1.257812 6.242188 -0.804688 5.859375 -0.421875 C 5.484375 -0.046875 5.039062 0.140625 4.53125 0.140625 Z M 4.1875 0.140625 "/></g></g></g><g fill="#000000" fill-opacity="1"><g transform="translate(220.037534, 526.461696)"><g><path d="M 17.03125 -12.671875 C 16.175781 -12.671875 15.75 -13.082031 15.75 -13.90625 L 15.75 -19.953125 L 6.140625 -19.953125 C 5.441406 -19.953125 5.070312 -19.582031 5.03125 -18.84375 L 5.03125 -15.484375 C 5.03125 -14.429688 4.582031 -13.90625 3.6875 -13.90625 C 2.8125 -13.90625 2.375 -14.429688 2.375 -15.484375 L 2.375 -19.171875 C 2.375 -20.222656 2.625 -20.992188 3.125 -21.484375 C 3.632812 -21.972656 4.414062 -22.195312 5.46875 -22.15625 L 15.75 -22.15625 L 15.75 -23.765625 L 5.625 -23.765625 C 4.664062 -23.765625 4.1875 -24.164062 4.1875 -24.96875 C 4.1875 -25.78125 4.664062 -26.1875 5.625 -26.1875 L 28.65625 -26.1875 C 29.644531 -26.1875 30.140625 -25.78125 30.140625 -24.96875 C 30.140625 -24.164062 29.644531 -23.765625 28.65625 -23.765625 L 18.34375 -23.765625 L 18.34375 -22.15625 L 28.765625 -22.15625 C 29.859375 -22.15625 30.65625 -21.921875 31.15625 -21.453125 C 31.664062 -20.984375 31.921875 -20.222656 31.921875 -19.171875 L 31.921875 -15.484375 C 31.921875 -14.429688 31.472656 -13.90625 30.578125 -13.90625 C 29.703125 -13.90625 29.265625 -14.429688 29.265625 -15.484375 L 29.265625 -18.84375 C 29.265625 -19.53125 28.894531 -19.898438 28.15625 -19.953125 L 18.34375 -19.953125 L 18.34375 -13.90625 C 18.34375 -13.082031 17.90625 -12.671875 17.03125 -12.671875 Z M 7.40625 -16.65625 C 6.601562 -16.65625 6.203125 -16.992188 6.203125 -17.671875 C 6.203125 -18.359375 6.601562 -18.703125 7.40625 -18.703125 L 13.375 -18.703125 C 14.175781 -18.703125 14.578125 -18.359375 14.578125 -17.671875 C 14.578125 -17.359375 14.472656 -17.109375 14.265625 -16.921875 C 14.054688 -16.742188 13.757812 -16.65625 13.375 -16.65625 Z M 20.609375 -16.65625 C 19.828125 -16.65625 19.4375 -16.992188 19.4375 -17.671875 C 19.4375 -18.359375 19.828125 -18.703125 20.609375 -18.703125 L 26.890625 -18.703125 C 27.710938 -18.703125 28.125 -18.359375 28.125 -17.671875 C 28.125 -17.359375 28.015625 -17.109375 27.796875 -16.921875 C 27.585938 -16.742188 27.285156 -16.65625 26.890625 -16.65625 Z M 7.40625 -13.4375 C 6.601562 -13.4375 6.203125 -13.773438 6.203125 -14.453125 C 6.203125 -15.140625 6.601562 -15.484375 7.40625 -15.484375 L 13.375 -15.484375 C 14.175781 -15.484375 14.578125 -15.140625 14.578125 -14.453125 C 14.578125 -14.140625 14.472656 -13.890625 14.265625 -13.703125 C 14.054688 -13.523438 13.757812 -13.4375 13.375 -13.4375 Z M 20.609375 -13.4375 C 19.828125 -13.4375 19.4375 -13.773438 19.4375 -14.453125 C 19.4375 -15.140625 19.828125 -15.484375 20.609375 -15.484375 L 26.890625 -15.484375 C 27.710938 -15.484375 28.125 -15.140625 28.125 -14.453125 C 28.125 -14.140625 28.015625 -13.890625 27.796875 -13.703125 C 27.585938 -13.523438 27.285156 -13.4375 26.890625 -13.4375 Z M 5.296875 3.28125 C 4.421875 3.28125 3.984375 2.800781 3.984375 1.84375 L 3.984375 -4.484375 C 3.984375 -5.535156 4.21875 -6.300781 4.6875 -6.78125 C 5.15625 -7.269531 5.90625 -7.476562 6.9375 -7.40625 L 13.109375 -7.40625 L 14.109375 -9.421875 L 3.3125 -9.421875 C 2.375 -9.421875 1.90625 -9.800781 1.90625 -10.5625 C 1.90625 -11.34375 2.375 -11.734375 3.3125 -11.734375 L 30.96875 -11.734375 C 31.914062 -11.734375 32.390625 -11.34375 32.390625 -10.5625 C 32.390625 -9.800781 31.914062 -9.421875 30.96875 -9.421875 L 17 -9.421875 L 15.828125 -7.40625 L 27.625 -7.40625 C 28.675781 -7.40625 29.441406 -7.171875 29.921875 -6.703125 C 30.398438 -6.234375 30.609375 -5.472656 30.546875 -4.421875 L 30.546875 -0.375 C 30.628906 0.882812 30.375 1.8125 29.78125 2.40625 C 29.1875 3.007812 28.265625 3.269531 27.015625 3.1875 L 25.71875 3.1875 C 24.707031 3.1875 24.203125 2.75 24.203125 1.875 C 24.203125 0.9375 24.660156 0.46875 25.578125 0.46875 L 26.453125 0.46875 C 26.921875 0.46875 27.28125 0.34375 27.53125 0.09375 C 27.789062 -0.144531 27.921875 -0.5 27.921875 -0.96875 L 27.921875 -4.015625 C 27.921875 -4.378906 27.828125 -4.65625 27.640625 -4.84375 C 27.453125 -5.03125 27.175781 -5.125 26.8125 -5.125 L 21.796875 -5.125 L 21.796875 1.234375 C 21.796875 2.148438 21.367188 2.609375 20.515625 2.609375 C 19.671875 2.609375 19.25 2.148438 19.25 1.234375 L 19.25 -5.125 L 14.1875 -5.125 L 14.1875 1.234375 C 14.1875 2.148438 13.757812 2.609375 12.90625 2.609375 C 12.050781 2.609375 11.625 2.148438 11.625 1.234375 L 11.625 -5.125 L 7.671875 -5.125 C 7.316406 -5.125 7.046875 -5.03125 6.859375 -4.84375 C 6.671875 -4.65625 6.578125 -4.378906 6.578125 -4.015625 L 6.578125 1.84375 C 6.578125 2.800781 6.148438 3.28125 5.296875 3.28125 Z M 5.296875 3.28125 "/></g></g></g><g fill="#000000" fill-opacity="1"><g transform="translate(254.366338, 526.461696)"><g><path d="M 12.96875 3.25 C 11.757812 3.25 11.15625 2.769531 11.15625 1.8125 C 11.15625 0.851562 11.75 0.375 12.9375 0.375 L 14.25 0.375 C 14.695312 0.375 15.035156 0.25 15.265625 0 C 15.503906 -0.25 15.632812 -0.609375 15.65625 -1.078125 L 15.65625 -18.765625 L 3.828125 -18.765625 C 2.703125 -18.765625 2.140625 -19.210938 2.140625 -20.109375 C 2.140625 -21.023438 2.703125 -21.484375 3.828125 -21.484375 L 15.65625 -21.484375 L 15.65625 -25.609375 C 15.65625 -26.722656 16.125 -27.28125 17.0625 -27.28125 C 17.976562 -27.28125 18.4375 -26.722656 18.4375 -25.609375 L 18.4375 -21.484375 L 30.46875 -21.484375 C 31.59375 -21.484375 32.15625 -21.023438 32.15625 -20.109375 C 32.15625 -19.210938 31.59375 -18.765625 30.46875 -18.765625 L 18.4375 -18.765625 L 18.4375 -16.09375 C 19.21875 -14.300781 20.269531 -12.476562 21.59375 -10.625 C 23.53125 -12.476562 25.179688 -14.125 26.546875 -15.5625 C 27.066406 -16.070312 27.515625 -16.328125 27.890625 -16.328125 C 28.898438 -16.328125 29.40625 -15.820312 29.40625 -14.8125 C 29.40625 -13.914062 27.257812 -11.925781 22.96875 -8.84375 C 24.957031 -6.519531 27.445312 -4.585938 30.4375 -3.046875 C 31.78125 -2.359375 32.453125 -1.703125 32.453125 -1.078125 C 32.453125 -0.00390625 31.957031 0.53125 30.96875 0.53125 C 30.476562 0.53125 29.351562 -0.0351562 27.59375 -1.171875 C 23.519531 -3.804688 20.488281 -7.359375 18.5 -11.828125 L 18.4375 -11.828125 L 18.4375 -0.265625 C 18.613281 2.253906 17.441406 3.425781 14.921875 3.25 Z M 26.8125 -22.21875 C 26.5 -22.21875 25.695312 -22.734375 24.40625 -23.765625 C 23.15625 -24.753906 22.53125 -25.414062 22.53125 -25.75 C 22.53125 -26.507812 22.988281 -26.890625 23.90625 -26.890625 C 24.332031 -26.890625 25.160156 -26.429688 26.390625 -25.515625 C 27.566406 -24.640625 28.15625 -23.96875 28.15625 -23.5 C 28.15625 -22.644531 27.707031 -22.21875 26.8125 -22.21875 Z M 9.546875 -10.390625 C 9.191406 -10.390625 8.488281 -10.945312 7.4375 -12.0625 L 6.96875 -12.578125 C 6.101562 -13.492188 5.59375 -14.003906 5.4375 -14.109375 C 5.007812 -14.441406 4.796875 -14.820312 4.796875 -15.25 C 4.796875 -16.125 5.265625 -16.5625 6.203125 -16.5625 C 6.398438 -16.5625 6.734375 -16.394531 7.203125 -16.0625 C 7.671875 -15.726562 8.242188 -15.222656 8.921875 -14.546875 C 10.285156 -13.179688 10.96875 -12.289062 10.96875 -11.875 C 10.96875 -10.882812 10.492188 -10.390625 9.546875 -10.390625 Z M 3.3125 0.171875 C 2.820312 0.171875 2.457031 0.0507812 2.21875 -0.1875 C 1.988281 -0.4375 1.875 -0.832031 1.875 -1.375 C 1.875 -2.039062 2.253906 -2.566406 3.015625 -2.953125 C 6.796875 -4.890625 9.835938 -6.675781 12.140625 -8.3125 C 12.691406 -8.695312 13.082031 -8.890625 13.3125 -8.890625 C 14.175781 -8.890625 14.609375 -8.414062 14.609375 -7.46875 C 14.609375 -6.957031 14.253906 -6.457031 13.546875 -5.96875 C 7.503906 -1.875 4.09375 0.171875 3.3125 0.171875 Z M 3.3125 0.171875 "/></g></g></g><g fill="#000000" fill-opacity="1"><g transform="translate(288.695142, 526.461696)"><g><path d="M 30.9375 -10.734375 C 30.5625 -10.734375 30.054688 -10.929688 29.421875 -11.328125 C 28.785156 -11.734375 28.085938 -12.316406 27.328125 -13.078125 C 25.691406 -14.660156 24.367188 -16.335938 23.359375 -18.109375 C 22.359375 -19.847656 21.789062 -21.234375 21.65625 -22.265625 C 21.519531 -23.242188 21.117188 -23.742188 20.453125 -23.765625 L 16.625 -23.765625 C 15.570312 -23.765625 15.046875 -24.222656 15.046875 -25.140625 C 15.046875 -25.609375 15.171875 -25.953125 15.421875 -26.171875 C 15.671875 -26.398438 16.070312 -26.515625 16.625 -26.515625 L 20.71875 -26.515625 C 21.675781 -26.515625 22.414062 -26.328125 22.9375 -25.953125 C 23.3125 -25.640625 23.734375 -24.695312 24.203125 -23.125 C 25.316406 -19.375 27.539062 -16.394531 30.875 -14.1875 C 31.34375 -13.875 31.710938 -13.546875 31.984375 -13.203125 C 32.253906 -12.867188 32.390625 -12.546875 32.390625 -12.234375 C 32.390625 -11.234375 31.90625 -10.734375 30.9375 -10.734375 Z M 3.25 -10.421875 C 2.375 -10.421875 1.9375 -10.925781 1.9375 -11.9375 C 1.9375 -12.332031 2.394531 -12.957031 3.3125 -13.8125 C 4.320312 -14.726562 5.394531 -16.082031 6.53125 -17.875 C 7.207031 -18.945312 7.734375 -19.820312 8.109375 -20.5 C 8.492188 -21.175781 8.785156 -21.804688 8.984375 -22.390625 C 9.359375 -23.535156 9.925781 -24.109375 10.6875 -24.109375 C 11.1875 -24.109375 11.546875 -24.003906 11.765625 -23.796875 C 11.992188 -23.597656 12.109375 -23.273438 12.109375 -22.828125 C 12.109375 -21.796875 10.929688 -19.4375 8.578125 -15.75 C 7.460938 -13.988281 6.441406 -12.660156 5.515625 -11.765625 C 4.585938 -10.867188 3.832031 -10.421875 3.25 -10.421875 Z M 19.25 2.890625 C 18.195312 2.890625 17.671875 2.382812 17.671875 1.375 C 17.671875 0.476562 18.25 0 19.40625 -0.0625 C 21.394531 -0.175781 22.582031 -0.4375 22.96875 -0.84375 C 23.34375 -1.238281 23.65625 -2.554688 23.90625 -4.796875 C 24.144531 -7.078125 24.265625 -8.53125 24.265625 -9.15625 C 24.265625 -10.207031 23.773438 -10.734375 22.796875 -10.734375 L 14.84375 -10.734375 C 14.507812 -7.148438 13.804688 -4.441406 12.734375 -2.609375 C 11.773438 -0.984375 10.269531 0.375 8.21875 1.46875 C 6.46875 2.382812 5.101562 2.84375 4.125 2.84375 C 3.226562 2.84375 2.78125 2.351562 2.78125 1.375 C 2.78125 1.039062 2.929688 0.753906 3.234375 0.515625 C 3.535156 0.285156 4.007812 0.0820312 4.65625 -0.09375 C 7.007812 -0.789062 8.765625 -1.910156 9.921875 -3.453125 C 11.171875 -5.085938 11.898438 -7.515625 12.109375 -10.734375 L 8.609375 -10.734375 C 7.472656 -10.734375 6.90625 -11.175781 6.90625 -12.0625 C 6.90625 -12.957031 7.472656 -13.40625 8.609375 -13.40625 L 23.828125 -13.40625 C 26.003906 -13.40625 27.09375 -12.515625 27.09375 -10.734375 C 27.09375 -8.710938 26.921875 -6.285156 26.578125 -3.453125 C 26.222656 -0.390625 25.453125 1.429688 24.265625 2.015625 C 23.054688 2.597656 21.382812 2.890625 19.25 2.890625 Z M 19.25 2.890625 "/></g></g></g><g fill="#000000" fill-opacity="1"><g transform="translate(323.023945, 526.461696)"><g><path d="M 10.125 -12.609375 L 10.125 1.9375 C 10.125 2.4375 10.015625 2.800781 9.796875 3.03125 C 9.585938 3.269531 9.257812 3.390625 8.8125 3.390625 C 8.363281 3.390625 8.039062 3.269531 7.84375 3.03125 C 7.644531 2.800781 7.546875 2.4375 7.546875 1.9375 L 7.546875 -12.03125 C 7.097656 -10.664062 6.316406 -9.003906 5.203125 -7.046875 C 4.285156 -5.453125 3.59375 -4.65625 3.125 -4.65625 C 2.3125 -4.65625 1.90625 -5.148438 1.90625 -6.140625 C 1.90625 -6.492188 2.0625 -6.875 2.375 -7.28125 C 3.289062 -8.476562 4.21875 -10.085938 5.15625 -12.109375 C 6.101562 -14.140625 6.832031 -16.0625 7.34375 -17.875 L 3.484375 -17.875 C 2.585938 -17.875 2.140625 -18.296875 2.140625 -19.140625 C 2.140625 -19.960938 2.585938 -20.375 3.484375 -20.375 L 7.546875 -20.375 L 7.546875 -25.984375 C 7.546875 -26.472656 7.644531 -26.832031 7.84375 -27.0625 C 8.039062 -27.300781 8.363281 -27.421875 8.8125 -27.421875 C 9.257812 -27.421875 9.585938 -27.300781 9.796875 -27.0625 C 10.015625 -26.832031 10.125 -26.472656 10.125 -25.984375 L 10.125 -20.375 L 13.078125 -20.375 C 13.566406 -20.375 13.914062 -20.273438 14.125 -20.078125 C 14.34375 -19.878906 14.453125 -19.566406 14.453125 -19.140625 C 14.453125 -18.296875 13.992188 -17.875 13.078125 -17.875 L 10.125 -17.875 L 10.125 -13.375 C 10.34375 -13.800781 10.675781 -14.015625 11.125 -14.015625 C 11.664062 -14.015625 12.472656 -13.273438 13.546875 -11.796875 C 14.597656 -10.296875 15.125 -9.3125 15.125 -8.84375 C 15.125 -8.445312 15.019531 -8.15625 14.8125 -7.96875 C 14.613281 -7.789062 14.289062 -7.703125 13.84375 -7.703125 C 13.375 -7.703125 12.75 -8.429688 11.96875 -9.890625 Z M 30.734375 -16.296875 C 31.804688 -16.296875 32.34375 -15.867188 32.34375 -15.015625 C 32.34375 -14.171875 31.804688 -13.75 30.734375 -13.75 L 27.75 -13.75 L 27.75 1.8125 C 27.75 2.863281 27.296875 3.390625 26.390625 3.390625 C 25.492188 3.390625 25.046875 2.863281 25.046875 1.8125 L 25.046875 -13.75 L 18.5 -13.75 C 18.5 -9.988281 18.175781 -6.835938 17.53125 -4.296875 C 17 -2.171875 16.304688 -0.515625 15.453125 0.671875 C 14.578125 1.898438 13.835938 2.515625 13.234375 2.515625 C 12.796875 2.515625 12.460938 2.390625 12.234375 2.140625 C 12.015625 1.898438 11.90625 1.507812 11.90625 0.96875 C 11.90625 0.675781 12.082031 0.320312 12.4375 -0.09375 C 13.53125 -1.300781 14.375 -2.769531 14.96875 -4.5 C 15.5625 -6.238281 15.867188 -8.179688 15.890625 -10.328125 C 15.910156 -11.265625 15.921875 -12.425781 15.921875 -13.8125 L 15.890625 -17.703125 C 15.890625 -18.253906 15.878906 -18.691406 15.859375 -19.015625 C 15.859375 -19.273438 15.851562 -19.691406 15.84375 -20.265625 C 15.832031 -20.835938 15.835938 -21.359375 15.859375 -21.828125 C 15.898438 -22.941406 16.125 -23.703125 16.53125 -24.109375 C 16.925781 -24.503906 17.753906 -24.769531 19.015625 -24.90625 C 22.359375 -25.289062 25.628906 -25.914062 28.828125 -26.78125 L 29.640625 -26.921875 C 30.109375 -26.921875 30.460938 -26.789062 30.703125 -26.53125 C 30.953125 -26.269531 31.078125 -25.90625 31.078125 -25.4375 C 31.078125 -24.726562 30.628906 -24.285156 29.734375 -24.109375 C 26.585938 -23.429688 23.785156 -22.972656 21.328125 -22.734375 C 20.585938 -22.660156 20.019531 -22.566406 19.625 -22.453125 C 19.238281 -22.347656 18.953125 -22.207031 18.765625 -22.03125 C 18.660156 -21.914062 18.582031 -21.675781 18.53125 -21.3125 C 18.488281 -20.957031 18.46875 -20.28125 18.46875 -19.28125 C 18.46875 -18.132812 18.476562 -17.140625 18.5 -16.296875 Z M 30.734375 -16.296875 "/></g></g></g><g fill="#000000" fill-opacity="1"><g transform="translate(357.352749, 526.461696)"><g><path d="M 8.1875 3.1875 C 7.3125 3.1875 6.875 2.691406 6.875 1.703125 L 6.875 -10.921875 L 2.984375 -10.53125 C 2.578125 -10.507812 2.273438 -10.613281 2.078125 -10.84375 C 1.878906 -11.082031 1.78125 -11.410156 1.78125 -11.828125 C 1.78125 -12.796875 2.601562 -13.242188 4.25 -13.171875 L 4.53125 -13.140625 L 6.8125 -16.453125 C 5.738281 -17.421875 4.394531 -18.429688 2.78125 -19.484375 C 2.25 -19.816406 1.984375 -20.207031 1.984375 -20.65625 C 1.984375 -21.476562 2.394531 -21.890625 3.21875 -21.890625 C 3.46875 -21.890625 3.867188 -21.710938 4.421875 -21.359375 C 5.453125 -23.078125 6.257812 -24.671875 6.84375 -26.140625 C 7.175781 -26.972656 7.664062 -27.390625 8.3125 -27.390625 C 9.25 -27.390625 9.71875 -26.960938 9.71875 -26.109375 C 9.71875 -25.328125 8.554688 -23.304688 6.234375 -20.046875 L 6.203125 -20.015625 L 8.1875 -18.5 C 9.09375 -19.9375 9.785156 -21.113281 10.265625 -22.03125 C 10.640625 -22.738281 11.09375 -23.09375 11.625 -23.09375 C 12.519531 -23.09375 12.96875 -22.679688 12.96875 -21.859375 C 12.96875 -21.546875 12.253906 -20.328125 10.828125 -18.203125 C 9.398438 -16.054688 8.179688 -14.390625 7.171875 -13.203125 L 11.0625 -13.40625 L 11.203125 -13.40625 L 10.734375 -15.15625 C 10.734375 -15.820312 11.078125 -16.15625 11.765625 -16.15625 C 12.367188 -16.15625 12.953125 -15.375 13.515625 -13.8125 C 14.066406 -12.226562 14.34375 -11.265625 14.34375 -10.921875 C 14.34375 -10.160156 13.953125 -9.78125 13.171875 -9.78125 C 12.585938 -9.78125 12.128906 -10.351562 11.796875 -11.5 L 11.203125 -11.4375 L 9.484375 -11.15625 L 9.484375 1.703125 C 9.484375 2.691406 9.050781 3.1875 8.1875 3.1875 Z M 16.328125 -12.8125 C 15.335938 -12.8125 14.84375 -13.222656 14.84375 -14.046875 C 14.84375 -14.847656 15.335938 -15.25 16.328125 -15.25 L 21.625 -15.25 L 21.625 -20.046875 L 15.421875 -20.046875 C 14.441406 -20.046875 13.953125 -20.457031 13.953125 -21.28125 C 13.953125 -22.09375 14.441406 -22.5 15.421875 -22.5 L 21.625 -22.5 L 21.625 -25.671875 C 21.625 -26.210938 21.738281 -26.613281 21.96875 -26.875 C 22.207031 -27.144531 22.539062 -27.28125 22.96875 -27.28125 C 23.382812 -27.28125 23.707031 -27.144531 23.9375 -26.875 C 24.175781 -26.613281 24.296875 -26.210938 24.296875 -25.671875 L 24.296875 -22.5 L 30.875 -22.5 C 31.90625 -22.5 32.421875 -22.082031 32.421875 -21.25 C 32.421875 -20.445312 31.90625 -20.046875 30.875 -20.046875 L 24.296875 -20.046875 L 24.296875 -15.25 L 30.203125 -15.25 C 31.210938 -15.25 31.71875 -14.847656 31.71875 -14.046875 C 31.71875 -13.222656 31.210938 -12.8125 30.203125 -12.8125 Z M 18.640625 2.3125 C 17.585938 2.3125 16.820312 2.078125 16.34375 1.609375 C 15.863281 1.140625 15.644531 0.390625 15.6875 -0.640625 L 15.6875 -6.671875 C 15.6875 -7.722656 15.921875 -8.488281 16.390625 -8.96875 C 16.859375 -9.445312 17.609375 -9.664062 18.640625 -9.625 L 27.71875 -9.625 C 28.789062 -9.625 29.566406 -9.394531 30.046875 -8.9375 C 30.535156 -8.476562 30.742188 -7.722656 30.671875 -6.671875 L 30.671875 -0.640625 C 30.671875 0.429688 30.441406 1.207031 29.984375 1.6875 C 29.523438 2.164062 28.769531 2.375 27.71875 2.3125 Z M 3.015625 0.09375 C 2.585938 0.09375 2.273438 0 2.078125 -0.1875 C 1.878906 -0.375 1.78125 -0.671875 1.78125 -1.078125 C 1.78125 -1.335938 1.878906 -1.75 2.078125 -2.3125 C 2.640625 -3.894531 2.988281 -5.707031 3.125 -7.75 C 3.1875 -8.6875 3.578125 -9.15625 4.296875 -9.15625 C 4.691406 -9.15625 4.984375 -9.050781 5.171875 -8.84375 C 5.367188 -8.644531 5.46875 -8.332031 5.46875 -7.90625 C 5.46875 -6.34375 5.195312 -4.457031 4.65625 -2.25 C 4.476562 -1.445312 4.253906 -0.851562 3.984375 -0.46875 C 3.722656 -0.09375 3.398438 0.09375 3.015625 0.09375 Z M 13.046875 -0.609375 C 12.640625 -0.609375 12.332031 -0.765625 12.125 -1.078125 C 11.925781 -1.390625 11.785156 -1.878906 11.703125 -2.546875 C 11.410156 -5.003906 11.175781 -6.515625 11 -7.078125 L 10.828125 -8.21875 C 10.785156 -8.53125 10.863281 -8.765625 11.0625 -8.921875 C 11.257812 -9.078125 11.539062 -9.15625 11.90625 -9.15625 C 12.53125 -9.15625 12.953125 -8.695312 13.171875 -7.78125 C 13.910156 -4.800781 14.28125 -2.800781 14.28125 -1.78125 C 14.28125 -1 13.867188 -0.609375 13.046875 -0.609375 Z M 26.8125 -0.09375 C 27.21875 -0.09375 27.523438 -0.203125 27.734375 -0.421875 C 27.953125 -0.648438 28.0625 -0.957031 28.0625 -1.34375 L 28.0625 -5.9375 C 28.0625 -6.332031 27.945312 -6.632812 27.71875 -6.84375 C 27.5 -7.0625 27.195312 -7.171875 26.8125 -7.171875 L 19.515625 -7.171875 C 18.679688 -7.171875 18.265625 -6.757812 18.265625 -5.9375 L 18.265625 -1.34375 C 18.265625 -0.507812 18.679688 -0.09375 19.515625 -0.09375 Z M 26.8125 -0.09375 "/></g></g></g><g fill="#000000" fill-opacity="1"><g transform="translate(391.681552, 526.461696)"><g><path d="M 16.96875 3.28125 C 16.070312 3.28125 15.625 2.722656 15.625 1.609375 L 15.625 -5.734375 C 14.257812 -4.097656 12.113281 -2.410156 9.1875 -0.671875 C 6.320312 1.023438 4.320312 1.875 3.1875 1.875 C 2.3125 1.875 1.875 1.394531 1.875 0.4375 C 1.875 -0.207031 2.429688 -0.734375 3.546875 -1.140625 C 8.109375 -2.742188 11.785156 -4.851562 14.578125 -7.46875 L 3.515625 -7.46875 C 2.984375 -7.46875 2.59375 -7.566406 2.34375 -7.765625 C 2.101562 -7.972656 1.984375 -8.300781 1.984375 -8.75 C 1.984375 -9.550781 2.492188 -9.953125 3.515625 -9.953125 L 15.625 -9.953125 L 15.625 -12.46875 L 7.703125 -12.46875 C 6.628906 -12.46875 5.835938 -12.738281 5.328125 -13.28125 C 4.765625 -13.851562 4.484375 -14.664062 4.484375 -15.71875 L 4.484375 -22.859375 C 4.484375 -23.984375 4.765625 -24.820312 5.328125 -25.375 C 5.890625 -25.9375 6.679688 -26.21875 7.703125 -26.21875 L 26.28125 -26.21875 C 27.351562 -26.21875 28.203125 -25.9375 28.828125 -25.375 C 29.367188 -24.90625 29.640625 -24.101562 29.640625 -22.96875 L 29.640625 -15.859375 C 29.640625 -14.785156 29.367188 -13.925781 28.828125 -13.28125 C 28.359375 -12.738281 27.554688 -12.46875 26.421875 -12.46875 L 18.296875 -12.46875 L 18.296875 -9.953125 L 30.734375 -9.953125 C 31.804688 -9.953125 32.34375 -9.539062 32.34375 -8.71875 C 32.34375 -7.882812 31.804688 -7.46875 30.734375 -7.46875 L 19.3125 -7.46875 C 22.726562 -4.414062 26.359375 -2.394531 30.203125 -1.40625 C 31.703125 -1.050781 32.453125 -0.492188 32.453125 0.265625 C 32.453125 1.273438 31.957031 1.78125 30.96875 1.78125 C 30.550781 1.78125 29.835938 1.578125 28.828125 1.171875 C 24.316406 -0.566406 20.804688 -2.925781 18.296875 -5.90625 L 18.296875 1.609375 C 18.296875 2.722656 17.851562 3.28125 16.96875 3.28125 Z M 15.625 -23.765625 L 8.6875 -23.765625 C 8.082031 -23.765625 7.675781 -23.664062 7.46875 -23.46875 C 7.269531 -23.269531 7.179688 -22.878906 7.203125 -22.296875 L 7.203125 -20.6875 L 15.625 -20.6875 Z M 26.921875 -22.296875 C 26.921875 -22.878906 26.820312 -23.269531 26.625 -23.46875 C 26.4375 -23.664062 26.054688 -23.765625 25.484375 -23.765625 L 18.296875 -23.765625 L 18.296875 -20.6875 L 26.921875 -20.6875 Z M 15.625 -18.234375 L 7.203125 -18.234375 L 7.203125 -16.390625 C 7.203125 -15.804688 7.300781 -15.414062 7.5 -15.21875 C 7.707031 -15.019531 8.101562 -14.921875 8.6875 -14.921875 L 15.625 -14.921875 Z M 25.484375 -14.921875 C 26.054688 -14.921875 26.4375 -15.019531 26.625 -15.21875 C 26.820312 -15.414062 26.921875 -15.804688 26.921875 -16.390625 L 26.921875 -18.234375 L 18.296875 -18.234375 L 18.296875 -14.921875 Z M 25.484375 -14.921875 "/></g></g></g></svg>